<?xml version="1.0" encoding="UTF-8"?>
<svg width="1810px" height="1496px" viewBox="0 0 1810 1496" version="1.1" xmlns="http://www.w3.org/2000/svg" xmlns:xlink="http://www.w3.org/1999/xlink">
    <!-- Generator: Sketch 52.6 (67491) - http://www.bohemiancoding.com/sketch -->
    <title>blob</title>
    <desc>Created with Sketch.</desc>
    <g id="Slides" stroke="none" stroke-width="1" fill="none" fill-rule="evenodd">
        <g id="blob-2" transform="translate(130.000000, 439.000000)" fill="#FFFFFF" fill-rule="nonzero">
            <polygon id="Shape" points="0 1140 1860 1140 1860 0 0 0"></polygon>
        </g>
        <g id="blob-3" transform="translate(130.000000, 439.000000)" fill="#FFFFFF" fill-rule="nonzero">
            <polygon id="Shape" points="0 0 0 1140 1860 1140 1860 0"></polygon>
        </g>
        <path d="M270.2,1168.8 C272.8,1129.7 278.3,1091.3 294,1055 C317.5,1000.6 358.6,963.1 409.7,935.5 C464.4,905.9 523.2,886.8 583.7,874.6 C662.2,858.8 726.5,819.6 781.5,763.3 C816.4,727.6 849.9,690.6 884.6,654.8 C928.1,609.8 975.9,570.3 1034.9,547.1 C1141.5,505.2 1245.6,512.4 1347.1,564.7 C1443.7,614.5 1522.3,685.6 1589.1,770.2 C1653.2,851.4 1702.5,940.5 1728.9,1041.2 C1748,1113.8 1753.1,1187 1732.4,1260.1 C1712.7,1329.5 1676.4,1387.7 1613.7,1426.6 C1572.7,1452 1527.1,1462.9 1479.5,1465.9 C1465.2,1466.8 1450.8,1466 1436.5,1466 C1370.6,1465.4 1306.2,1454 1242.5,1438.2 C1160,1417.7 1078,1395.3 995.6,1374.5 C945.9,1362 895.7,1352.1 844.2,1351.1 C800,1350.2 759.3,1358.9 721.7,1385.1 C648.4,1436.1 566.9,1446.8 481.2,1425.1 C416.1,1408.6 360.8,1375.3 318.3,1322.5 C282.2,1277.7 266.4,1226.4 270.2,1168.8 Z" id="Path" fill="#FFFFFF" fill-rule="nonzero"></path>
        <path d="M1679,984 C1678.7,984.9 1678.2,985.9 1678.1,986.8 C1676.9,1003.9 1672.3,1020.2 1666.7,1036.3 C1651.8,1078.9 1626.6,1114.3 1591.6,1142.5 C1561.1,1167 1526.6,1184.2 1489.8,1196.8 C1447.5,1211.3 1404,1220.2 1359.5,1223.9 C1331.3,1226.3 1303.1,1228 1274.9,1228.7 C1254.8,1229.2 1234.7,1227.8 1214.6,1226.9 C1197.8,1226.1 1181,1225.5 1164.3,1223.6 C1133.9,1220.2 1103.5,1216.4 1073.2,1211.8 C1019.6,1203.6 966.8,1192 914.6,1177.3 C880.3,1167.6 845.4,1161.5 809.9,1160.2 C791.3,1159.5 772.7,1160.9 754.1,1161.9 C723.7,1163.6 694,1169.9 664.6,1177.3 C619.2,1188.9 575.5,1205.7 531.6,1222 C504.1,1232.2 476.6,1242.4 447.7,1248.2 C443.1,1249.1 438.6,1250 434,1250.9 C423.3,1250.9 412.7,1250.9 402,1250.9 C400.4,1250.5 398.8,1250 397.2,1249.7 C381.1,1246.3 367.1,1238.9 355.8,1227 C343.8,1214.3 335.2,1199.3 328.6,1183.1 C323.7,1171.1 318.9,1159 313.6,1147.2 C297.2,1110.8 276.8,1077 246.5,1050.3 C234.7,1039.9 221.9,1030.4 208.8,1021.7 C193.4,1011.5 177.1,1002.8 161.5,992.9 C148.8,984.9 139.3,973.8 134.4,959.4 C132.6,954.1 131.5,948.5 130,943 C130,931.7 130,920.3 130,909 C130.3,907.9 130.8,906.8 131,905.7 C133.5,888.4 139.9,872.6 149.4,858.1 C161.6,839.5 178,824.9 194.5,810.4 C210.3,796.6 226.1,782.8 241.1,768.2 C252.1,757.4 260.4,744.4 265.6,729.7 C272.9,709 274.9,687.7 274.2,665.9 C273.5,642 268.3,619 260.6,596.6 C253.8,576.7 246.2,557.2 239.7,537.2 C233.6,518.4 229.8,499.2 234,479.2 C237.8,461.5 246.5,446.2 256.4,431.6 C273.1,407.1 293.2,385.7 315.8,366.5 C351.2,336.4 390.5,312.4 432.9,293.7 C491,268.1 551.8,252.9 615.2,247.9 C620.8,247.5 626.4,246.7 632,246 L704,246 C705.3,246.3 706.5,246.8 707.8,246.9 C724.7,248.6 741.6,249.7 758.4,251.9 C816.5,259.5 872.7,274.8 927.2,296.2 C965.7,311.3 1004.3,326 1044,337.7 C1097.6,353.5 1151.9,366.4 1207,375.9 C1271.2,386.9 1335.6,396.7 1399.9,407 C1448.4,414.8 1497.1,422.1 1544.3,436.2 C1571.2,444.2 1597.5,454 1619.4,472.4 C1636,486.3 1646.1,503.8 1647.9,525.6 C1649.8,549.3 1643.7,571.6 1634.5,593.1 C1626.8,611 1618.1,628.5 1611,646.6 C1598.8,677.7 1591.4,709.7 1592.9,743.5 C1594.1,770.9 1601.7,796.4 1614.5,820.3 C1625.9,841.6 1638.9,861.9 1651.1,882.8 C1662.7,902.6 1672.6,923.1 1676.5,946 C1677.4,951.1 1678.2,956.1 1679.1,961.2 C1679,968.7 1679,976.3 1679,984 Z" id="blob" fill-opacity="0.07" fill="#6CABDD" fill-rule="nonzero"></path>
    </g>
</svg>