<svg width="272" height="99" viewBox="0 0 272 99" fill="none" xmlns="http://www.w3.org/2000/svg">
<path d="M25.5906 28.5922C27.8393 27.5833 29.7267 25.9122 31.0006 23.8022C32.3063 21.5305 32.957 18.9414 32.8806 16.3222C32.9446 13.6904 32.3097 11.0887 31.0406 8.78224C29.7976 6.61429 27.9296 4.87172 25.6806 3.78224C23.0362 2.54455 20.1392 1.94186 17.2206 2.02224H1.42057C1.23115 2.02082 1.04339 2.05758 0.868491 2.13033C0.693594 2.20308 0.535148 2.31032 0.402613 2.44566C0.270077 2.58099 0.16617 2.74164 0.0970941 2.91802C0.028018 3.0944 -0.00481039 3.28289 0.000568651 3.47224V44.3322C0.000568651 44.5187 0.037298 44.7034 0.10866 44.8756C0.180021 45.0479 0.284618 45.2045 0.416477 45.3363C0.548336 45.4682 0.704876 45.5728 0.877158 45.6441C1.04944 45.7155 1.23409 45.7522 1.42057 45.7522H7.82057C8.19637 45.7496 8.55603 45.5992 8.82177 45.3334C9.0875 45.0677 9.23795 44.708 9.24057 44.3322V30.2622H16.0006L23.8606 45.0022C23.9825 45.2279 24.1629 45.4165 24.3828 45.5485C24.6027 45.6804 24.8541 45.7508 25.1106 45.7522H32.1106C32.3564 45.7511 32.5976 45.6862 32.8108 45.5638C33.024 45.4415 33.2018 45.2659 33.3267 45.0543C33.4517 44.8426 33.5196 44.6021 33.5238 44.3564C33.528 44.1106 33.4683 43.868 33.3506 43.6522L25.2206 28.7522L25.5906 28.5922ZM9.24057 9.60224H15.4706C16.9852 9.55432 18.4934 9.81987 19.9006 10.3822C20.9961 10.8361 21.9153 11.6325 22.5206 12.6522C23.1315 13.7765 23.4318 15.0433 23.3906 16.3222C23.4349 17.5824 23.134 18.8306 22.5206 19.9322C21.916 20.9256 20.9976 21.6892 19.9106 22.1022C18.5061 22.6321 17.0109 22.8802 15.5106 22.8322H9.24057V9.60224Z" fill="#6CAADD"/>
<path d="M53.4005 45.7522H57.0005C57.3763 45.7496 57.736 45.5992 58.0017 45.3334C58.2675 45.0677 58.4179 44.708 58.4205 44.3322V18.0922H64.0005C64.3754 18.0922 64.7351 17.944 65.0011 17.6799C65.2671 17.4157 65.4179 17.0571 65.4205 16.6822V14.3922C65.4102 14.0217 65.2563 13.6696 64.9914 13.4103C64.7265 13.151 64.3712 13.0047 64.0005 13.0022H58.3705V10.0022C58.2948 8.80835 58.6496 7.62686 59.3705 6.67223C59.8065 6.24995 60.3296 5.92819 60.9032 5.72953C61.4767 5.53086 62.0867 5.46011 62.6905 5.52223C63.2628 5.50174 63.8352 5.56234 64.3905 5.70223C64.5287 5.77341 64.6815 5.81141 64.8369 5.81322C64.9923 5.81503 65.146 5.7806 65.2857 5.71266C65.4255 5.64471 65.5475 5.54513 65.6421 5.42182C65.7366 5.2985 65.8012 5.15484 65.8305 5.00223L66.6405 2.21223C66.695 2.03036 66.7121 1.83938 66.691 1.65072C66.6698 1.46206 66.6107 1.27962 66.5174 1.11433C66.424 0.949043 66.2982 0.804316 66.1475 0.688827C65.9968 0.573337 65.8244 0.489463 65.6405 0.442234L65.0005 0.312234C63.9221 0.0870673 62.822 -0.016911 61.7205 0.00223351C60.0574 -0.015165 58.41 0.325904 56.8905 1.00223C55.4394 1.66187 54.205 2.71943 53.3305 4.05223C52.3875 5.59217 51.9245 7.37809 52.0005 9.18223V13.0022H48.3205C47.9457 13.0049 47.587 13.1556 47.3229 13.4217C47.0587 13.6877 46.9105 14.0474 46.9105 14.4222V16.7122C46.9105 17.0862 47.0591 17.4448 47.3235 17.7093C47.5879 17.9737 47.9466 18.1222 48.3205 18.1222H52.0005V44.3322C52.0005 44.7054 52.1473 45.0636 52.4093 45.3293C52.6713 45.5951 53.0274 45.747 53.4005 45.7522Z" fill="#6CAADD"/>
<path d="M72.3606 44.3022C74.8162 45.6857 77.5871 46.4125 80.4056 46.4125C83.2241 46.4125 85.995 45.6857 88.4506 44.3022C90.7536 42.8797 92.6027 40.8294 93.7806 38.3922C95.0997 35.6215 95.7504 32.5801 95.6806 29.5122C95.7515 26.4314 95.1008 23.3767 93.7806 20.5922C92.6091 18.1455 90.759 16.0871 88.4506 14.6622C85.995 13.2788 83.2241 12.5519 80.4056 12.5519C77.5871 12.5519 74.8162 13.2788 72.3606 14.6622C70.0444 16.0866 68.1845 18.1444 67.0006 20.5922C65.6884 23.3791 65.0414 26.4327 65.1106 29.5122C65.0425 32.5788 65.6896 35.6192 67.0006 38.3922C68.1909 40.8305 70.0498 42.8802 72.3606 44.3022ZM72.5206 23.7222C73.0833 22.0661 74.094 20.5984 75.4406 19.4822C76.8664 18.3758 78.6374 17.8091 80.4406 17.8822C82.2453 17.7985 84.0198 18.3664 85.4406 19.4822C86.7841 20.6013 87.7942 22.068 88.3606 23.7222C89.0082 25.5763 89.3296 27.5285 89.3106 29.4922C89.3308 31.4594 89.0093 33.415 88.3606 35.2722C87.7961 36.9162 86.785 38.3705 85.4406 39.4722C84.0154 40.5778 82.2423 41.1381 80.4406 41.0522C78.6404 41.1268 76.8711 40.5677 75.4406 39.4722C74.093 38.3734 73.0812 36.9181 72.5206 35.2722C71.8549 33.4181 71.5165 31.4623 71.5206 29.4922C71.5177 27.5255 71.856 25.5732 72.5206 23.7222Z" fill="#6CAADD"/>
<path d="M105.331 25.7322C105.304 24.4132 105.646 23.1129 106.317 21.9772C106.988 20.8414 107.962 19.9151 109.131 19.3022C110.365 18.6599 111.739 18.3335 113.131 18.3522C113.8 18.347 114.469 18.3938 115.131 18.4922C115.288 18.5532 115.457 18.5736 115.624 18.5515C115.791 18.5294 115.95 18.4656 116.085 18.3658C116.221 18.2661 116.329 18.1337 116.4 17.981C116.471 17.8283 116.502 17.6602 116.491 17.4922V13.8022C116.492 13.6329 116.459 13.465 116.395 13.3085C116.33 13.1519 116.235 13.0098 116.115 12.8906C115.995 12.7713 115.852 12.6773 115.695 12.614C115.538 12.5508 115.37 12.5196 115.201 12.5222C114.661 12.5222 114.201 12.5222 113.781 12.5222C111.95 12.4792 110.15 12.9955 108.621 14.0022C107.126 14.9971 106.009 16.4659 105.451 18.1722H105.111V14.3922C105.103 14.0208 104.95 13.6673 104.684 13.4075C104.419 13.1476 104.062 13.0021 103.691 13.0022H100.361C99.9996 13.0174 99.658 13.1696 99.4053 13.4279C99.1527 13.6861 99.0079 14.031 99.0006 14.3922V44.3322C99.0006 44.7071 99.1488 45.0668 99.413 45.3328C99.6771 45.5988 100.036 45.7496 100.411 45.7522H103.961C104.336 45.7496 104.696 45.5992 104.962 45.3334C105.228 45.0677 105.378 44.708 105.381 44.3322L105.331 25.7322Z" fill="#6CAADD"/>
<path d="M134.141 37.4522C134.078 39.1934 134.545 40.9126 135.481 42.3822C136.354 43.6638 137.575 44.6698 139.001 45.2822C140.486 45.9103 142.088 46.2137 143.701 46.1722C144.56 46.1779 145.417 46.0975 146.261 45.9322H146.501C146.862 45.8443 147.175 45.6179 147.371 45.3019C147.567 44.9858 147.632 44.6053 147.551 44.2422C147.551 44.2422 146.921 41.4422 146.861 41.0722C146.841 40.9555 146.796 40.8444 146.729 40.7468C146.662 40.6493 146.575 40.5676 146.473 40.5075C146.371 40.4475 146.257 40.4105 146.139 40.3992C146.021 40.3879 145.902 40.4026 145.791 40.4422C145.346 40.5297 144.893 40.5666 144.441 40.5522C143.783 40.5583 143.129 40.4466 142.511 40.2222C141.898 39.9829 141.389 39.5372 141.071 38.9622C140.649 38.0956 140.459 37.1342 140.521 36.1722V18.1722H145.821C146.007 18.1735 146.191 18.138 146.363 18.0678C146.535 17.9975 146.692 17.8939 146.824 17.7628C146.956 17.6317 147.061 17.4759 147.132 17.3041C147.204 17.1324 147.241 16.9482 147.241 16.7622V14.3922C147.233 14.0208 147.08 13.6673 146.814 13.4075C146.549 13.1476 146.192 13.0021 145.821 13.0022H140.521V6.54222C140.518 6.16642 140.368 5.80676 140.102 5.54103C139.836 5.27529 139.476 5.12484 139.101 5.12222H135.561C135.184 5.12222 134.823 5.27183 134.556 5.53813C134.29 5.80443 134.141 6.16562 134.141 6.54222V13.0022H130.761C130.384 13.0022 130.023 13.1518 129.756 13.4181C129.49 13.6844 129.341 14.0456 129.341 14.4222V16.7122C129.341 16.8982 129.377 17.0824 129.449 17.2541C129.52 17.4259 129.625 17.5817 129.757 17.7128C129.889 17.8439 130.046 17.9475 130.218 18.0178C130.39 18.088 130.575 18.1235 130.761 18.1222H134.141V37.4522Z" fill="#6CAADD"/>
<path d="M156.291 26.2922C156.239 24.7479 156.583 23.216 157.291 21.8422C157.922 20.6359 158.901 19.6467 160.101 19.0022C161.33 18.3418 162.705 17.9981 164.101 18.0022C165.055 17.9487 166.01 18.0994 166.901 18.4443C167.793 18.7892 168.601 19.3203 169.271 20.0022C170.584 21.5617 171.247 23.5672 171.121 25.6022V44.3322C171.123 44.708 171.274 45.0677 171.539 45.3334C171.805 45.5992 172.165 45.7496 172.541 45.7522H176.091C176.465 45.7496 176.824 45.5988 177.088 45.3328C177.352 45.0668 177.501 44.7071 177.501 44.3322V24.9022C177.582 22.5447 177.105 20.2012 176.111 18.0622C175.253 16.3168 173.881 14.8756 172.181 13.9322C170.362 12.9805 168.332 12.5057 166.281 12.5522C164.11 12.4549 161.959 12.9936 160.091 14.1022C158.525 15.1251 157.3 16.5907 156.571 18.3122H156.171V3.47225C156.171 3.09564 156.021 2.73446 155.755 2.46815C155.488 2.20185 155.127 2.05225 154.751 2.05225H151.291C150.914 2.05225 150.553 2.20185 150.287 2.46815C150.02 2.73446 149.871 3.09564 149.871 3.47225V44.3322C149.873 44.708 150.024 45.0677 150.289 45.3334C150.555 45.5992 150.915 45.7496 151.291 45.7522H154.831C155.207 45.7522 155.568 45.6026 155.835 45.3363C156.101 45.07 156.251 44.7089 156.251 44.3322L156.291 26.2922Z" fill="#6CAADD"/>
<path d="M208.26 37.2622L204.95 36.6622C204.654 36.6094 204.349 36.6527 204.079 36.7858C203.809 36.9189 203.589 37.135 203.45 37.4022C203.121 38.0131 202.699 38.5696 202.2 39.0522C201.464 39.7558 200.584 40.2914 199.62 40.6222C198.553 40.9774 197.435 41.1531 196.31 41.1422C194.605 41.1835 192.919 40.7656 191.43 39.9322C190.017 39.1147 188.882 37.892 188.17 36.4222C187.404 34.8168 187.005 33.0611 187 31.2822H208.861C209.047 31.2836 209.233 31.2477 209.405 31.1769C209.578 31.106 209.735 31.0014 209.868 30.8693C210 30.7372 210.104 30.5801 210.175 30.4072C210.246 30.2343 210.282 30.0491 210.28 29.8622V29.0022C210.342 26.4213 209.939 23.8504 209.09 21.4122C208.395 19.4922 207.278 17.7527 205.821 16.3222C204.481 15.0481 202.89 14.0672 201.15 13.4422C199.422 12.8356 197.603 12.5278 195.771 12.5322C193.004 12.4393 190.272 13.1626 187.914 14.6119C185.556 16.0611 183.677 18.1723 182.51 20.6822C181.204 23.4534 180.558 26.4893 180.62 29.5522C180.548 32.6225 181.195 35.6671 182.51 38.4422C183.691 40.8833 185.561 42.9244 187.89 44.3122C190.424 45.7554 193.306 46.4749 196.22 46.3922C198.4 46.4275 200.568 46.0544 202.611 45.2922C204.381 44.6293 205.978 43.5727 207.28 42.2022C208.108 41.319 208.783 40.3054 209.28 39.2022C209.365 39.0094 209.406 38.8 209.399 38.5894C209.391 38.3788 209.337 38.1726 209.239 37.9862C209.14 37.7997 209.002 37.6377 208.832 37.5124C208.663 37.387 208.467 37.3015 208.26 37.2622ZM188.09 22.5422C188.796 21.1552 189.855 19.9789 191.161 19.1322C192.554 18.2373 194.185 17.781 195.84 17.8222C197.366 17.8004 198.867 18.2094 200.17 19.0022C201.365 19.731 202.343 20.767 203 22.0022C203.693 23.3884 204.037 24.923 204 26.4722H187C187.084 25.1002 187.455 23.7612 188.09 22.5422Z" fill="#6CAADD"/>
<path d="M25.5905 80.5422C27.8393 79.5333 29.7267 77.8622 31.0005 75.7522C32.306 73.484 32.9567 70.8982 32.8806 68.2822C32.9458 65.6471 32.3109 63.0418 31.0406 60.7322C29.7976 58.5643 27.9295 56.8217 25.6805 55.7322C23.0398 54.5079 20.1501 53.9156 17.2405 54.0022H1.42055C1.04394 54.0022 0.682759 54.1518 0.416458 54.4181C0.150156 54.6844 0.000549316 55.0456 0.000549316 55.4222L0.000549316 96.2822C0.000549316 96.6588 0.150156 97.02 0.416458 97.2863C0.682759 97.5526 1.04394 97.7022 1.42055 97.7022H7.82055C8.19635 97.6996 8.55601 97.5492 8.82175 97.2834C9.08748 97.0177 9.23793 96.658 9.24055 96.2822V82.2122H16.0005L23.8605 97.0022C23.9825 97.2278 24.1629 97.4165 24.3828 97.5485C24.6027 97.6804 24.8541 97.7508 25.1105 97.7522H32.1105C32.3575 97.7541 32.6005 97.691 32.8154 97.5694C33.0303 97.4477 33.2095 97.2718 33.3351 97.0592C33.4606 96.8466 33.5281 96.6047 33.5309 96.3578C33.5336 96.1109 33.4714 95.8676 33.3505 95.6522L25.1805 80.7122C25.3105 80.6522 25.4606 80.6122 25.5905 80.5422ZM9.24055 61.5422H15.4705C16.9852 61.4943 18.4934 61.7599 19.9005 62.3222C20.9988 62.7768 21.9187 63.5773 22.5205 64.6022C23.1338 65.7256 23.4343 66.9931 23.3905 68.2722C23.4335 69.529 23.1327 70.7738 22.5205 71.8722C21.9136 72.8659 20.9964 73.632 19.9105 74.0522C18.504 74.5738 17.0099 74.8182 15.5105 74.7722H9.24055V61.5422Z" fill="#6CAADD"/>
<path d="M61.9406 68.6422C60.5374 67.2615 58.8522 66.2005 57.0006 65.5322C55.0753 64.8471 53.0439 64.5086 51.0006 64.5322C48.0584 64.4607 45.1531 65.1974 42.6006 66.6622C40.2172 68.0902 38.2942 70.1728 37.0606 72.6622C35.6896 75.4148 35.0035 78.4577 35.0606 81.5322C34.9868 84.6501 35.6732 87.7391 37.0606 90.5322C38.3067 92.9938 40.2557 95.0298 42.6606 96.3822C45.3323 97.8132 48.3308 98.5232 51.3606 98.4422C53.8051 98.4865 56.2356 98.0622 58.5206 97.1922C60.4666 96.4487 62.2054 95.2483 63.5906 93.6922C64.4904 92.6801 65.1955 91.5105 65.6706 90.2422C65.7626 90.0316 65.8026 89.8019 65.787 89.5725C65.7715 89.3432 65.7008 89.1209 65.5811 88.9247C65.4614 88.7284 65.2961 88.5639 65.0993 88.4451C64.9025 88.3263 64.68 88.2567 64.4506 88.2422L58.7606 87.8722C58.496 87.8545 58.2319 87.9117 57.9984 88.0373C57.7649 88.1629 57.5716 88.3518 57.4406 88.5822C57.1796 89.0726 56.842 89.5182 56.4406 89.9022C55.8217 90.4802 55.0847 90.9169 54.2806 91.1822C53.386 91.471 52.4505 91.6128 51.5106 91.6022C50.1115 91.6347 48.7297 91.2892 47.5106 90.6022C46.4236 89.9544 45.5508 89.0017 45.0006 87.8622C44.3625 86.5563 44.0503 85.1152 44.0906 83.6622H65.0006C65.3772 83.6622 65.7383 83.5126 66.0046 83.2463C66.2709 82.98 66.4206 82.6188 66.4206 82.2422V81.1422C66.4699 78.6553 66.0737 76.1795 65.2506 73.8322C64.5376 71.8822 63.4081 70.111 61.9406 68.6422ZM44.0906 78.0022C44.1344 76.8701 44.4426 75.7639 44.9906 74.7722C45.5839 73.7222 46.4425 72.8464 47.4806 72.2322C48.5823 71.5701 49.8451 71.2241 51.1306 71.2322C52.3508 71.2047 53.556 71.5052 54.6206 72.1022C55.6272 72.6715 56.4523 73.5139 57.0006 74.5322C57.5749 75.5968 57.861 76.793 57.8306 78.0022H44.0906Z" fill="#6CAADD"/>
<path d="M88.1406 78.6722L82.2106 77.4722C81.0534 77.2967 79.9538 76.8514 79.0006 76.1722C78.7017 75.9327 78.4616 75.6279 78.2987 75.2813C78.1357 74.9346 78.0543 74.5552 78.0606 74.1722C78.0622 73.6836 78.1984 73.2049 78.4542 72.7886C78.71 72.3723 79.0755 72.0345 79.5106 71.8122C80.5921 71.192 81.8245 70.8839 83.0706 70.9222C84.0039 70.9013 84.9309 71.0785 85.7906 71.4422C86.5062 71.7568 87.1393 72.2325 87.6406 72.8322C87.886 73.138 88.091 73.4741 88.2506 73.8322C88.3672 74.1043 88.5633 74.3348 88.8131 74.4936C89.0629 74.6524 89.3548 74.7321 89.6506 74.7222L95.2506 74.3722C95.4587 74.3625 95.662 74.3065 95.8457 74.2083C96.0293 74.1101 96.1888 73.9721 96.3124 73.8045C96.436 73.6368 96.5206 73.4437 96.5601 73.2391C96.5996 73.0346 96.5929 72.8239 96.5406 72.6222C95.9346 70.4029 94.5819 68.4604 92.7106 67.1222C90.3306 65.3722 87.0606 64.5022 82.9306 64.5022C80.4307 64.4469 77.9432 64.8677 75.6006 65.7422C73.6848 66.4355 72.0036 67.6557 70.7506 69.2622C69.579 70.8308 68.9633 72.7448 69.0006 74.7022C68.9684 75.8081 69.159 76.9092 69.561 77.94C69.963 78.9708 70.5682 79.9101 71.3406 80.7022C73.3415 82.4882 75.8255 83.6433 78.4806 84.0222L84.1506 85.1522C85.2823 85.322 86.3619 85.7422 87.3106 86.3822C87.6161 86.6197 87.8645 86.9227 88.0376 87.2688C88.2106 87.6149 88.3039 87.9953 88.3106 88.3822C88.2942 88.8777 88.148 89.3602 87.8865 89.7814C87.625 90.2026 87.2574 90.5478 86.8206 90.7822C85.6059 91.4114 84.2546 91.7306 82.8868 91.7114C81.519 91.6922 80.1772 91.3352 78.9806 90.6722C78.2364 90.1903 77.6572 89.4925 77.3206 88.6722C77.2088 88.4139 77.0248 88.1934 76.7906 88.0373C76.5564 87.8812 76.282 87.7961 76.0006 87.7922L69.8306 88.1222C69.6195 88.1298 69.4128 88.185 69.226 88.2838C69.0393 88.3826 68.8773 88.5223 68.7522 88.6926C68.6272 88.8629 68.5423 89.0593 68.5039 89.267C68.4655 89.4748 68.4746 89.6885 68.5306 89.8922C69.2087 92.2252 70.6755 94.2504 72.6806 95.6222C75.2406 97.4356 78.6806 98.3422 83.0006 98.3422C85.5847 98.4029 88.1548 97.9473 90.5606 97.0022C92.5877 96.2213 94.3716 94.917 95.7306 93.2222C96.9859 91.6054 97.6526 89.6089 97.6206 87.5622C97.66 86.4963 97.4707 85.4343 97.0653 84.4476C96.66 83.461 96.048 82.5726 95.2706 81.8422C93.2232 80.1621 90.7596 79.0668 88.1406 78.6722Z" fill="#6CAADD"/>
<path d="M116.401 90.7122C115.978 90.7914 115.55 90.8316 115.121 90.8322C114.571 90.845 114.024 90.7498 113.511 90.5522C113.037 90.3683 112.65 90.0107 112.431 89.5522C112.13 88.9304 111.996 88.2414 112.041 87.5522V71.7522H116.791C116.977 71.7536 117.161 71.7181 117.333 71.6478C117.505 71.5775 117.662 71.4739 117.794 71.3428C117.926 71.2117 118.031 71.0559 118.102 70.8841C118.174 70.7124 118.211 70.5282 118.211 70.3422V66.3422C118.211 66.1562 118.174 65.9721 118.102 65.8003C118.031 65.6286 117.926 65.4727 117.794 65.3417C117.662 65.2106 117.505 65.107 117.333 65.0367C117.161 64.9664 116.977 64.9309 116.791 64.9322H112.001V58.4922C112.001 58.1174 111.852 57.7577 111.588 57.4917C111.324 57.2256 110.965 57.0749 110.591 57.0722H104.331C103.971 57.0975 103.634 57.2578 103.387 57.5212C103.14 57.7845 103.002 58.1314 103.001 58.4922V64.9322H99.8906C99.5157 64.9322 99.156 65.0805 98.89 65.3446C98.624 65.6087 98.4732 65.9674 98.4706 66.3422V70.3422C98.4732 70.7171 98.624 71.0757 98.89 71.3399C99.156 71.604 99.5157 71.7522 99.8906 71.7522H103.001V88.8222C102.918 90.696 103.388 92.5528 104.351 94.1622C105.272 95.5724 106.611 96.6596 108.181 97.2722C110.013 97.9711 111.973 98.2711 113.931 98.1522C114.939 98.1248 115.943 98.0077 116.931 97.8022L117.531 97.6522C117.88 97.5558 118.179 97.3284 118.365 97.0175C118.551 96.7065 118.61 96.3358 118.531 95.9822C118.531 95.9822 117.641 91.8422 117.531 91.3922C117.421 90.9422 117.191 90.5522 116.401 90.7122Z" fill="#6CAADD"/>
<path d="M158.451 66.6222C155.801 65.2296 152.853 64.5019 149.861 64.5019C146.868 64.5019 143.92 65.2296 141.271 66.6222C138.878 68.02 136.94 70.0793 135.691 72.5522C134.319 75.3116 133.633 78.3612 133.691 81.4422C133.634 84.5071 134.321 87.54 135.691 90.2822C136.94 92.7579 138.878 94.8204 141.271 96.2222C143.92 97.6149 146.868 98.3426 149.861 98.3426C152.853 98.3426 155.801 97.6149 158.451 96.2222C160.832 94.8159 162.759 92.7538 164.001 90.2822C165.367 87.5387 166.053 84.5067 166.001 81.4422C166.054 78.3617 165.368 75.3132 164.001 72.5522C162.759 70.0833 160.832 68.0245 158.451 66.6222ZM156.001 86.4822C155.556 87.8419 154.755 89.0574 153.681 90.0022C152.621 90.8797 151.276 91.3386 149.901 91.2922C148.51 91.3371 147.15 90.8791 146.071 90.0022C144.986 89.0609 144.18 87.8399 143.741 86.4722C142.714 83.1498 142.714 79.5947 143.741 76.2722C144.18 74.8989 144.985 73.6714 146.071 72.7222C147.149 71.8426 148.509 71.3811 149.901 71.4222C151.277 71.3786 152.622 71.8411 153.681 72.7222C154.761 73.6781 155.562 74.9081 156.001 76.2822C157.041 79.6027 157.041 83.1618 156.001 86.4822Z" fill="#6CAADD"/>
<path d="M180.431 60.1423C180.801 59.7947 181.242 59.5315 181.723 59.371C182.205 59.2104 182.716 59.1562 183.221 59.2123C183.755 59.1863 184.29 59.2368 184.811 59.3623C184.974 59.4254 185.15 59.4517 185.325 59.4391C185.5 59.4265 185.67 59.3753 185.823 59.2893C185.976 59.2033 186.108 59.0846 186.209 58.9416C186.311 58.7986 186.38 58.6349 186.411 58.4623L187.411 54.2223C187.455 54.0376 187.461 53.846 187.43 53.6587C187.399 53.4715 187.331 53.2923 187.229 53.132C187.127 52.9716 186.995 52.8333 186.839 52.7251C186.683 52.6169 186.506 52.5412 186.321 52.5023L185.141 52.2723C183.876 52.0514 182.594 51.9443 181.311 51.9523C179.404 51.9171 177.516 52.3208 175.791 53.1323C174.203 53.8994 172.883 55.1257 172.001 56.6523C171.008 58.4592 170.524 60.5019 170.601 62.5623V64.9323H167.391C167.205 64.9309 167.02 64.9664 166.848 65.0367C166.676 65.107 166.519 65.2106 166.387 65.3417C166.255 65.4727 166.15 65.6286 166.079 65.8003C166.007 65.9721 165.971 66.1562 165.971 66.3422V70.3422C165.971 70.5283 166.007 70.7124 166.079 70.8842C166.15 71.0559 166.255 71.2118 166.387 71.3428C166.519 71.4739 166.676 71.5775 166.848 71.6478C167.02 71.7181 167.205 71.7536 167.391 71.7523H170.601V97.7523H179.671V71.7523H184.781C185.155 71.7523 185.515 71.604 185.781 71.3399C186.047 71.0757 186.198 70.7171 186.201 70.3422V66.3422C186.198 65.9674 186.047 65.6088 185.781 65.3446C185.515 65.0805 185.155 64.9322 184.781 64.9323H179.671V62.7323C179.602 61.8054 179.872 60.8852 180.431 60.1423Z" fill="#6CAADD"/>
<path d="M229.811 81.5922C229.837 83.1427 229.457 84.6732 228.711 86.0322C227.971 87.2972 226.899 88.335 225.611 89.0322C224.16 89.7621 222.559 90.1422 220.936 90.1422C219.312 90.1422 217.711 89.7621 216.261 89.0322C214.964 88.342 213.887 87.3028 213.151 86.0322C212.404 84.6732 212.025 83.1427 212.051 81.5922V55.4222C212.051 55.0473 211.902 54.6877 211.638 54.4217C211.374 54.1556 211.015 54.0049 210.641 54.0022H204.231C203.855 54.0048 203.495 54.1553 203.229 54.421C202.964 54.6868 202.813 55.0464 202.811 55.4222V82.4222C202.748 85.3692 203.536 88.2717 205.081 90.7822C206.62 93.2034 208.815 95.1383 211.411 96.3622C214.405 97.6795 217.64 98.3597 220.911 98.3597C224.182 98.3597 227.417 97.6795 230.411 96.3622C233.058 95.1338 235.284 93.1527 236.812 90.6664C238.339 88.18 239.101 85.2987 239.001 82.3822V55.3822C238.991 55.0211 238.843 54.6773 238.589 54.4209C238.334 54.1645 237.992 54.0148 237.631 54.0022H231.221C230.846 54.0049 230.487 54.1556 230.223 54.4217C229.959 54.6877 229.811 55.0473 229.811 55.4222V81.5922Z" fill="#6CAADD"/>
<path d="M269.001 81.8222C266.951 80.1493 264.488 79.061 261.871 78.6722L255.941 77.4722C254.78 77.2982 253.677 76.8528 252.721 76.1722C252.422 75.9327 252.182 75.6279 252.019 75.2813C251.856 74.9346 251.774 74.5552 251.781 74.1722C251.782 73.6836 251.918 73.2049 252.174 72.7886C252.43 72.3723 252.795 72.0345 253.231 71.8122C254.312 71.192 255.544 70.8839 256.791 70.9222C257.724 70.9013 258.651 71.0785 259.511 71.4422C260.225 71.7595 260.857 72.2348 261.361 72.8322C261.606 73.138 261.811 73.4741 261.971 73.8322C262.087 74.1043 262.283 74.3348 262.533 74.4936C262.783 74.6524 263.075 74.7321 263.371 74.7222L268.971 74.3722C269.179 74.3625 269.382 74.3065 269.566 74.2083C269.749 74.1101 269.909 73.9721 270.032 73.8045C270.156 73.6368 270.241 73.4437 270.28 73.2391C270.32 73.0346 270.313 72.8239 270.261 72.6222C269.655 70.4029 268.302 68.4604 266.431 67.1222C264.037 65.3756 260.774 64.5022 256.641 64.5022C254.141 64.4486 251.654 64.8693 249.311 65.7422C247.399 66.4381 245.722 67.658 244.471 69.2622C243.31 70.8346 242.705 72.7483 242.751 74.7022C242.718 75.8081 242.909 76.9092 243.311 77.94C243.713 78.9708 244.318 79.9101 245.091 80.7022C247.091 82.4882 249.575 83.6433 252.231 84.0222L257.901 85.1522C259.015 85.3426 260.073 85.7762 261.001 86.4222C261.306 86.6597 261.554 86.9627 261.728 87.3088C261.901 87.6549 261.994 88.0353 262.001 88.4222C261.984 88.9177 261.838 89.4002 261.576 89.8214C261.315 90.2426 260.947 90.5878 260.511 90.8222C259.296 91.4514 257.945 91.7706 256.577 91.7514C255.209 91.7322 253.867 91.3752 252.671 90.7122C251.924 90.2328 251.344 89.5342 251.011 88.7122C250.901 88.4302 250.706 88.1892 250.454 88.0226C250.201 87.856 249.903 87.772 249.601 87.7822L243.431 88.1122C243.219 88.1198 243.013 88.175 242.826 88.2738C242.639 88.3726 242.477 88.5123 242.352 88.6826C242.227 88.8529 242.142 89.0493 242.104 89.257C242.065 89.4648 242.075 89.6785 242.131 89.8822C242.805 92.217 244.273 94.2435 246.281 95.6122C248.847 97.4256 252.301 98.3322 256.641 98.3322C259.247 98.4054 261.842 97.9531 264.271 97.0022C266.298 96.2213 268.082 94.917 269.441 93.2222C270.696 91.6054 271.363 89.6089 271.331 87.5622C271.375 86.4945 271.191 85.4295 270.789 84.4393C270.387 83.4491 269.777 82.5567 269.001 81.8222Z" fill="#6CAADD"/>
</svg>
