<svg width="485" height="46" viewBox="0 0 485 46" fill="none" xmlns="http://www.w3.org/2000/svg">
<path d="M25 27.8742C27.197 26.8914 29.0423 25.2624 30.29 23.2042C31.5584 20.9886 32.1915 18.4662 32.12 15.9142C32.1807 13.3481 31.5595 10.8119 30.32 8.56422C29.1038 6.46221 27.2856 4.77288 25.1 3.71422C22.5086 2.50313 19.6691 1.91741 16.81 2.00422H1.38C1.014 2.00422 0.662993 2.14961 0.404193 2.40841C0.145392 2.66721 0 3.01822 0 3.38422L0 43.2142C0 43.3954 0.0356947 43.5749 0.105046 43.7423C0.174398 43.9098 0.276048 44.0619 0.404193 44.19C0.532337 44.3182 0.684468 44.4198 0.851897 44.4892C1.01933 44.5585 1.19878 44.5942 1.38 44.5942H7.62C7.80122 44.5942 7.98067 44.5585 8.1481 44.4892C8.31553 44.4198 8.46766 44.3182 8.59581 44.19C8.72395 44.0619 8.8256 43.9098 8.89495 43.7423C8.9643 43.5749 9 43.3954 9 43.2142V29.4942H15.57L23.25 43.8642C23.368 44.0852 23.5438 44.2698 23.7588 44.3984C23.9737 44.527 24.2195 44.5947 24.47 44.5942H31.25C31.4836 44.5904 31.7123 44.5273 31.9148 44.4109C32.1174 44.2945 32.287 44.1286 32.4079 43.9288C32.5289 43.7289 32.5971 43.5016 32.6062 43.2682C32.6153 43.0348 32.565 42.8029 32.46 42.5942L24.54 28.0042L25 27.8742ZM9 9.36422H15.07C16.5439 9.31498 18.0118 9.57383 19.38 10.1242C20.4748 10.549 21.3967 11.3267 22 12.3342C22.5939 13.4318 22.8871 14.6668 22.85 15.9142C22.889 17.1427 22.5953 18.3589 22 19.4342C21.4076 20.4032 20.5109 21.1487 19.45 21.5542C18.0824 22.0634 16.6286 22.3012 15.17 22.2542H9V9.36422Z" fill="#6CABDD"/>
<path d="M52.05 44.5942H55.51C55.6912 44.5942 55.8706 44.5585 56.0381 44.4892C56.2055 44.4198 56.3576 44.3182 56.4858 44.19C56.6139 44.0619 56.7156 43.9098 56.7849 43.7423C56.8543 43.5749 56.89 43.3955 56.89 43.2142V17.6442H62.39C62.572 17.6455 62.7526 17.6108 62.9211 17.5421C63.0897 17.4733 63.243 17.3719 63.3722 17.2436C63.5015 17.1153 63.604 16.9627 63.674 16.7946C63.7439 16.6266 63.78 16.4463 63.78 16.2642V14.0042C63.78 13.8222 63.7439 13.6419 63.674 13.4738C63.604 13.3057 63.5015 13.1531 63.3722 13.0249C63.243 12.8966 63.0897 12.7951 62.9211 12.7264C62.7526 12.6576 62.572 12.6229 62.39 12.6242H56.89V9.78423C56.8174 8.61538 57.1729 7.4601 57.89 6.53423C58.3141 6.12334 58.823 5.81019 59.381 5.61671C59.939 5.42324 60.5325 5.35413 61.12 5.41423C61.6817 5.39566 62.2435 5.45284 62.79 5.58423C62.9262 5.64958 63.0754 5.68323 63.2264 5.68265C63.3775 5.68207 63.5265 5.64727 63.6622 5.58087C63.7978 5.51448 63.9167 5.4182 64.0099 5.29927C64.103 5.18035 64.168 5.04187 64.2 4.89423L65 2.17423C65.051 1.99559 65.0655 1.80849 65.0425 1.62413C65.0195 1.43977 64.9595 1.26196 64.8661 1.10134C64.7727 0.940728 64.6479 0.800623 64.4991 0.689426C64.3502 0.57823 64.1805 0.498231 64 0.454226L63.36 0.304226C62.3074 0.0879645 61.2344 -0.0126326 60.16 0.00422644C58.5393 -0.00767914 56.9354 0.333563 55.46 1.00423C54.0439 1.65346 52.8433 2.69446 52 4.00423C51.0794 5.50508 50.6236 7.2448 50.69 9.00423V12.7142H47.1C46.749 12.7135 46.411 12.8465 46.1547 13.0861C45.8983 13.3257 45.7429 13.654 45.72 14.0042V16.2342C45.72 16.6002 45.8654 16.9512 46.1242 17.21C46.383 17.4688 46.734 17.6142 47.1 17.6142H50.67V43.2142C50.67 43.3955 50.7057 43.5749 50.775 43.7423C50.8444 43.9098 50.946 44.0619 51.0742 44.19C51.2023 44.3182 51.3544 44.4198 51.5219 44.4892C51.6893 44.5585 51.8687 44.5942 52.05 44.5942Z" fill="#6CABDD"/>
<path d="M70.53 43.1842C72.9224 44.5345 75.6229 45.244 78.37 45.244C81.1172 45.244 83.8177 44.5345 86.21 43.1842C88.455 41.7968 90.2587 39.7989 91.41 37.4242C92.6973 34.7226 93.3311 31.756 93.26 28.7642C93.3309 25.7628 92.6973 22.7865 91.41 20.0742C90.2679 17.6881 88.4626 15.6814 86.21 14.2942C83.8177 12.9439 81.1172 12.2344 78.37 12.2344C75.6229 12.2344 72.9224 12.9439 70.53 14.2942C68.2822 15.687 66.4783 17.6921 65.33 20.0742C64.0474 22.7881 63.414 25.7632 63.48 28.7642C63.4139 31.7556 64.0474 34.721 65.33 37.4242C66.486 39.7958 68.2886 41.7926 70.53 43.1842ZM70.69 23.1242C71.2359 21.5113 72.2233 20.0839 73.54 19.0042C74.9502 17.9902 76.6432 17.4446 78.38 17.4446C80.1169 17.4446 81.8099 17.9902 83.22 19.0042C84.5265 20.0954 85.5087 21.5238 86.06 23.1342C86.6928 24.9365 87.0108 26.8341 87 28.7442C87.0209 30.6632 86.7096 32.5713 86.08 34.3842C85.5308 35.9873 84.5477 37.4066 83.24 38.4842C81.8247 39.4855 80.1337 40.0233 78.4 40.0233C76.6664 40.0233 74.9753 39.4855 73.56 38.4842C72.2423 37.4137 71.2543 35.9923 70.71 34.3842C70.0723 32.5732 69.7575 30.6642 69.78 28.7442C69.7534 26.8322 70.0614 24.9302 70.69 23.1242Z" fill="#6CABDD"/>
<path d="M102.67 25.0842C102.643 23.7973 102.976 22.5284 103.632 21.4206C104.287 20.3127 105.239 19.41 106.38 18.8142C107.59 18.1861 108.937 17.8699 110.3 17.8942C110.939 17.8874 111.578 17.9308 112.21 18.0242C112.365 18.0788 112.532 18.0942 112.694 18.0691C112.857 18.0439 113.011 17.979 113.143 17.8801C113.274 17.7812 113.379 17.6513 113.449 17.502C113.518 17.3527 113.549 17.1886 113.54 17.0242V13.4542C113.543 13.2898 113.512 13.1265 113.45 12.9741C113.388 12.8218 113.296 12.6835 113.179 12.5677C113.063 12.4519 112.924 12.3609 112.771 12.3001C112.618 12.2394 112.454 12.2102 112.29 12.2142C111.75 12.2142 111.29 12.2142 110.9 12.2142C109.122 12.1917 107.379 12.7077 105.9 13.6942C104.441 14.6637 103.352 16.098 102.81 17.7642H102.48V14.0042C102.48 13.6382 102.335 13.2872 102.076 13.0284C101.817 12.7696 101.466 12.6242 101.1 12.6242H97.83C97.464 12.6242 97.1129 12.7696 96.8541 13.0284C96.5953 13.2872 96.45 13.6382 96.45 14.0042V43.2142C96.45 43.3954 96.4856 43.5749 96.555 43.7423C96.6244 43.9098 96.726 44.0619 96.8541 44.19C96.9823 44.3182 97.1344 44.4198 97.3018 44.4892C97.4693 44.5585 97.6487 44.5942 97.83 44.5942H101.28C101.462 44.5955 101.643 44.5608 101.811 44.4921C101.98 44.4233 102.133 44.3219 102.262 44.1936C102.391 44.0653 102.494 43.9127 102.564 43.7446C102.634 43.5766 102.67 43.3963 102.67 43.2142V25.0842Z" fill="#6CABDD"/>
<path d="M130.75 36.5042C130.687 38.2035 131.144 39.8814 132.06 41.3142C132.911 42.5621 134.101 43.5405 135.49 44.1342C136.936 44.7533 138.498 45.0535 140.07 45.0142C140.909 45.0102 141.746 44.9299 142.57 44.7742L142.8 44.7242C143.147 44.6343 143.445 44.4129 143.632 44.1068C143.819 43.8007 143.879 43.4339 143.8 43.0842C143.8 43.0842 143.18 40.3542 143.12 39.9942C143.101 39.8849 143.058 39.7809 142.996 39.689C142.934 39.5971 142.853 39.5194 142.758 39.4609C142.664 39.4024 142.558 39.3645 142.448 39.3495C142.338 39.3346 142.226 39.343 142.12 39.3742C141.689 39.4611 141.249 39.498 140.81 39.4842C140.168 39.4914 139.531 39.3795 138.93 39.1542C138.331 38.9264 137.832 38.4943 137.52 37.9342C137.108 37.0894 136.922 36.1523 136.98 35.2142V17.6442H142.15C142.516 17.6442 142.867 17.4988 143.126 17.24C143.385 16.9812 143.53 16.6302 143.53 16.2642V14.0042C143.53 13.6382 143.385 13.2872 143.126 13.0284C142.867 12.7696 142.516 12.6242 142.15 12.6242H137V6.37423C136.999 6.19129 136.961 6.01044 136.889 5.84219C136.817 5.67393 136.713 5.52164 136.582 5.39415C136.45 5.26667 136.295 5.16655 136.125 5.09961C135.955 5.03267 135.773 5.00024 135.59 5.00423H132.13C131.764 5.00423 131.413 5.14962 131.154 5.40842C130.895 5.66722 130.75 6.01823 130.75 6.38423V12.6642H127.45C127.091 12.6641 126.746 12.804 126.488 13.0542C126.23 13.3044 126.08 13.6452 126.07 14.0042V16.2342C126.07 16.6002 126.215 16.9512 126.474 17.21C126.733 17.4688 127.084 17.6142 127.45 17.6142H130.75V36.5042Z" fill="#6CABDD"/>
<path d="M152.35 25.6242C152.316 24.12 152.66 22.6313 153.35 21.2942C153.972 20.1334 154.921 19.1807 156.08 18.5542C157.295 17.9206 158.65 17.6009 160.02 17.6242C160.943 17.5733 161.867 17.72 162.729 18.0545C163.592 18.389 164.373 18.9038 165.02 19.5642C166.304 21.076 166.956 23.0243 166.84 25.0042V43.2142C166.84 43.3954 166.876 43.5749 166.945 43.7423C167.014 43.9098 167.116 44.0619 167.244 44.19C167.372 44.3182 167.524 44.4198 167.692 44.4892C167.859 44.5585 168.039 44.5942 168.22 44.5942H171.68C171.861 44.5942 172.041 44.5585 172.208 44.4892C172.376 44.4198 172.528 44.3182 172.656 44.19C172.784 44.0619 172.886 43.9098 172.955 43.7423C173.024 43.5749 173.06 43.3954 173.06 43.2142V24.2742C173.139 21.978 172.673 19.6957 171.7 17.6142C170.866 15.9184 169.528 14.5215 167.87 13.6142C166.099 12.6828 164.12 12.2182 162.12 12.2642C160.015 12.1758 157.929 12.7041 156.12 13.7842C154.595 14.7799 153.401 16.2072 152.69 17.8842H152.29V3.38422C152.29 3.20045 152.253 3.01851 152.182 2.8491C152.111 2.67968 152.007 2.5262 151.875 2.39766C151.744 2.26911 151.588 2.16809 151.417 2.10053C151.246 2.03297 151.064 2.00023 150.88 2.00422H147.51C147.144 2.00422 146.793 2.14962 146.534 2.40842C146.275 2.66722 146.13 3.01823 146.13 3.38422V43.2142C146.13 43.3954 146.166 43.5749 146.235 43.7423C146.304 43.9098 146.406 44.0619 146.534 44.19C146.662 44.3182 146.814 44.4198 146.982 44.4892C147.149 44.5585 147.329 44.5942 147.51 44.5942H151C151.182 44.5955 151.363 44.5608 151.531 44.4921C151.7 44.4233 151.853 44.3219 151.982 44.1936C152.111 44.0653 152.214 43.9127 152.284 43.7446C152.354 43.5766 152.39 43.3963 152.39 43.2142L152.35 25.6242Z" fill="#6CABDD"/>
<path d="M203 36.3242L199.77 35.7342C199.481 35.6848 199.183 35.7289 198.92 35.8602C198.658 35.9915 198.444 36.2031 198.31 36.4642C197.99 37.056 197.582 37.5956 197.1 38.0642C196.38 38.7501 195.521 39.272 194.58 39.5942C193.543 39.9452 192.454 40.1177 191.36 40.1042C189.693 40.1447 188.046 39.7372 186.59 38.9242C185.217 38.1243 184.114 36.9337 183.42 35.5042C182.687 33.9395 182.308 32.2322 182.31 30.5042H203.62C203.802 30.5042 203.982 30.4682 204.15 30.3982C204.318 30.3283 204.471 30.2257 204.599 30.0965C204.728 29.9673 204.829 29.814 204.898 29.6454C204.967 29.4768 205.001 29.2963 205 29.1142V28.2942C205.061 25.7779 204.668 23.2711 203.84 20.8942C203.168 19.0078 202.078 17.2982 200.65 15.8942C199.348 14.6472 197.798 13.6895 196.1 13.0842C194.416 12.4938 192.644 12.1929 190.86 12.1942C188.164 12.1071 185.502 12.8129 183.204 14.2243C180.905 15.6357 179.072 17.6906 177.93 20.1342C176.656 22.84 176.026 25.8042 176.09 28.7942C176.018 31.785 176.649 34.7509 177.93 37.4542C179.083 39.8302 180.904 41.8181 183.17 43.1742C185.647 44.5683 188.458 45.2598 191.3 45.1742C193.422 45.2089 195.532 44.846 197.52 44.1042C199.247 43.4608 200.806 42.4352 202.08 41.1042C202.91 40.2424 203.587 39.2446 204.08 38.1542C204.153 37.9635 204.181 37.7588 204.164 37.5555C204.147 37.3521 204.084 37.1553 203.98 36.9795C203.876 36.8037 203.734 36.6536 203.565 36.5401C203.395 36.4267 203.202 36.3529 203 36.3242ZM183.34 22.0042C184.031 20.6531 185.065 19.5079 186.34 18.6842C187.696 17.8071 189.286 17.3609 190.9 17.4042C192.379 17.3663 193.839 17.7477 195.11 18.5042C196.3 19.2298 197.268 20.2673 197.91 21.5042C198.592 22.8551 198.935 24.3513 198.91 25.8642H182.32C182.387 24.5206 182.735 23.2058 183.34 22.0042Z" fill="#6CABDD"/>
<path d="M245.2 27.8942C247.397 26.9114 249.242 25.2824 250.49 23.2242C251.758 21.0086 252.392 18.4862 252.32 15.9342C252.381 13.3681 251.76 10.8319 250.52 8.58423C249.304 6.48221 247.486 4.79289 245.3 3.73423C242.722 2.52273 239.897 1.93031 237.05 2.00423H221.63C221.264 2.00423 220.913 2.14962 220.654 2.40842C220.395 2.66722 220.25 3.01823 220.25 3.38423V43.2342C220.25 43.6002 220.395 43.9512 220.654 44.21C220.913 44.4688 221.264 44.6142 221.63 44.6142H227.87C228.236 44.6142 228.587 44.4688 228.846 44.21C229.105 43.9512 229.25 43.6002 229.25 43.2342V29.5142H235.83L243.51 43.8842C243.626 44.1044 243.8 44.2887 244.014 44.4173C244.227 44.5459 244.471 44.614 244.72 44.6142H251.51C251.744 44.6104 251.972 44.5473 252.175 44.4309C252.377 44.3145 252.547 44.1486 252.668 43.9488C252.789 43.7489 252.857 43.5216 252.866 43.2882C252.875 43.0548 252.825 42.8229 252.72 42.6142L244.79 28.0942L245.2 27.8942ZM229.25 9.38423H235.33C236.804 9.33499 238.272 9.59384 239.64 10.1442C240.713 10.5803 241.612 11.3568 242.2 12.3542C242.79 13.4528 243.08 14.6877 243.04 15.9342C243.082 17.1618 242.792 18.3779 242.2 19.4542C241.608 20.4232 240.711 21.1687 239.65 21.5742C238.282 22.0834 236.829 22.3212 235.37 22.2742H229.25V9.38423Z" fill="#6CABDD"/>
<path d="M280.63 16.2842C279.267 14.9528 277.633 13.9298 275.84 13.2842C273.951 12.6058 271.957 12.2673 269.95 12.2842C267.081 12.2125 264.247 12.9321 261.76 14.3642C259.447 15.7435 257.576 17.7561 256.37 20.1642C255.042 22.8543 254.384 25.8251 254.45 28.8242C254.374 31.8499 255.033 34.8489 256.37 37.5642C257.582 39.9619 259.479 41.9456 261.82 43.2642C264.424 44.6588 267.347 45.3483 270.3 45.2642C272.69 45.3097 275.066 44.8955 277.3 44.0442C279.216 43.3243 280.93 42.1548 282.3 40.6342C283.164 39.6443 283.842 38.5059 284.3 37.2742C284.381 37.0714 284.412 36.8523 284.393 36.6349C284.373 36.4175 284.302 36.2077 284.186 36.0227C284.071 35.8377 283.913 35.6825 283.726 35.5699C283.539 35.4572 283.328 35.3902 283.11 35.3742L277.52 35.0042C277.261 34.9865 277.002 35.043 276.773 35.1669C276.545 35.2909 276.356 35.4772 276.23 35.7042C275.967 36.1814 275.629 36.6135 275.23 36.9842C274.629 37.5483 273.912 37.9749 273.13 38.2342C272.258 38.514 271.346 38.6524 270.43 38.6442C269.087 38.68 267.759 38.3591 266.58 37.7142C265.501 37.0765 264.634 36.1335 264.09 35.0042C263.474 33.7309 263.172 32.3283 263.21 30.9142H283.58C283.765 30.9196 283.948 30.8878 284.12 30.8209C284.292 30.7539 284.449 30.6531 284.582 30.5245C284.714 30.3958 284.819 30.2418 284.891 30.0717C284.963 29.9016 285 29.7189 285 29.5342V28.4742C285.048 26.0519 284.662 23.6405 283.86 21.3542C283.166 19.4489 282.064 17.7184 280.63 16.2842ZM263.23 25.4242C263.268 24.3173 263.566 23.2349 264.1 22.2642C264.679 21.2418 265.517 20.3899 266.53 19.7942C267.608 19.162 268.84 18.8401 270.09 18.8642C271.279 18.836 272.454 19.1297 273.49 19.7142C274.456 20.2599 275.253 21.063 275.79 22.0342C276.361 23.0712 276.647 24.2408 276.62 25.4242H263.23Z" fill="#6CABDD"/>
<path d="M306.17 26.0642L300.38 24.9042C299.249 24.7301 298.174 24.2953 297.24 23.6342C296.952 23.4004 296.72 23.1045 296.563 22.7685C296.405 22.4326 296.325 22.0653 296.33 21.6942C296.334 21.219 296.468 20.7539 296.716 20.3488C296.965 19.9436 297.318 19.6137 297.74 19.3942C298.799 18.7935 300.003 18.4959 301.22 18.5342C302.13 18.5118 303.034 18.6857 303.87 19.0442C304.565 19.3516 305.18 19.8133 305.67 20.3942C305.905 20.6853 306.103 21.0044 306.26 21.3442C306.371 21.6127 306.562 21.8404 306.807 21.9961C307.052 22.1518 307.34 22.228 307.63 22.2142L313.09 21.8742C313.293 21.8643 313.491 21.8093 313.671 21.7132C313.85 21.6171 314.005 21.4823 314.126 21.3185C314.247 21.1548 314.329 20.9663 314.368 20.7666C314.407 20.567 314.401 20.3612 314.35 20.1642C313.754 18.0048 312.433 16.116 310.61 14.8142C308.28 13.1042 305.11 12.2542 301.07 12.2542C298.635 12.201 296.212 12.6116 293.93 13.4642C292.063 14.1367 290.426 15.3263 289.21 16.8942C288.074 18.424 287.483 20.2896 287.53 22.1942C287.49 23.2793 287.672 24.3611 288.064 25.3738C288.456 26.3864 289.05 27.3086 289.81 28.0842C291.768 29.8386 294.206 30.967 296.81 31.3242L302.34 32.4242C303.443 32.5912 304.495 33.001 305.42 33.6242C305.73 33.8576 305.981 34.1597 306.155 34.5067C306.328 34.8537 306.419 35.2362 306.42 35.6242C306.412 36.1105 306.277 36.5862 306.028 37.0038C305.778 37.4214 305.424 37.7664 305 38.0042C303.86 38.6525 302.56 38.9645 301.25 38.9042C299.882 38.9696 298.527 38.6211 297.36 37.9042C296.621 37.4241 296.051 36.7247 295.73 35.9042C295.627 35.6301 295.44 35.3954 295.196 35.2338C294.952 35.0722 294.663 34.9918 294.37 35.0042L288.37 35.3142C288.16 35.3084 287.951 35.3511 287.76 35.4389C287.569 35.5268 287.4 35.6575 287.268 35.821C287.135 35.9844 287.042 36.1761 286.996 36.3813C286.949 36.5865 286.951 36.7997 287 37.0042C287.651 39.2828 289.085 41.2587 291.05 42.5842C293.55 44.3576 296.913 45.2442 301.14 45.2442C303.656 45.2924 306.157 44.8438 308.5 43.9242C310.463 43.1518 312.187 41.8756 313.5 40.2242C314.726 38.6526 315.376 36.7075 315.34 34.7142C315.382 33.6757 315.199 32.6404 314.803 31.6791C314.408 30.7177 313.81 29.8531 313.05 29.1442C311.074 27.5199 308.698 26.4561 306.17 26.0642Z" fill="#6CABDD"/>
<path d="M333.71 37.8042C333.298 37.8837 332.879 37.9239 332.46 37.9242C331.924 37.9323 331.391 37.8372 330.89 37.6442C330.438 37.4687 330.064 37.1346 329.84 36.7042C329.559 36.1116 329.429 35.4591 329.46 34.8042V19.3242H334.09C334.272 19.3255 334.453 19.2908 334.621 19.2221C334.79 19.1533 334.943 19.0519 335.072 18.9236C335.201 18.7953 335.304 18.6427 335.374 18.4746C335.444 18.3066 335.48 18.1263 335.48 17.9442V14.0542C335.48 13.8722 335.444 13.6919 335.374 13.5238C335.304 13.3557 335.201 13.2031 335.072 13.0749C334.943 12.9466 334.79 12.8451 334.621 12.7764C334.453 12.7076 334.272 12.6729 334.09 12.6742H329.46V6.39422C329.461 6.21216 329.427 6.03164 329.358 5.86305C329.289 5.69446 329.188 5.54115 329.059 5.41195C328.931 5.28274 328.778 5.1802 328.61 5.11022C328.442 5.04024 328.262 5.00422 328.08 5.00422H322C321.818 5.00291 321.637 5.03763 321.469 5.10639C321.3 5.17515 321.147 5.27659 321.018 5.40486C320.888 5.53314 320.786 5.68572 320.716 5.8538C320.646 6.02189 320.61 6.20216 320.61 6.38422V12.6642H317.61C317.244 12.6642 316.893 12.8096 316.634 13.0684C316.375 13.3272 316.23 13.6782 316.23 14.0442V17.9342C316.23 18.3002 316.375 18.6512 316.634 18.91C316.893 19.1688 317.244 19.3142 317.61 19.3142H320.61V36.0042C320.531 37.8281 320.987 39.6353 321.92 41.2042C322.825 42.5684 324.132 43.617 325.66 44.2042C327.445 44.8816 329.354 45.1713 331.26 45.0542C332.248 45.0302 333.232 44.9164 334.2 44.7142L334.79 44.5742C335.135 44.4843 335.432 44.2644 335.618 43.9605C335.804 43.6567 335.866 43.2925 335.79 42.9442C335.79 42.9442 334.92 38.9442 334.79 38.4742C334.66 38.0042 334.48 37.6442 333.71 37.8042Z" fill="#6CABDD"/>
<path d="M374.69 14.3242C372.108 12.9683 369.236 12.2598 366.32 12.2598C363.404 12.2598 360.532 12.9683 357.95 14.3242C355.617 15.6857 353.728 17.6931 352.51 20.1042C351.189 22.7964 350.534 25.7663 350.6 28.7642C350.535 31.7493 351.19 34.706 352.51 37.3842C353.74 39.8059 355.647 41.8176 358 43.1742C360.582 44.5302 363.454 45.2386 366.37 45.2386C369.286 45.2386 372.158 44.5302 374.74 43.1742C377.074 41.81 378.964 39.799 380.18 37.3842C381.508 34.7084 382.166 31.7505 382.1 28.7642C382.167 25.765 381.509 22.7939 380.18 20.1042C378.949 17.6863 377.041 15.6782 374.69 14.3242ZM372.28 33.6742C371.861 35.0043 371.091 36.1964 370.05 37.1242C369.011 37.9731 367.701 38.4171 366.36 38.3742C365.007 38.4152 363.685 37.9719 362.63 37.1242C361.573 36.2024 360.788 35.0095 360.36 33.6742C359.83 32.0616 359.573 30.3716 359.6 28.6742C359.573 26.9769 359.83 25.287 360.36 23.6742C360.788 22.339 361.573 21.1461 362.63 20.2242C363.685 19.3801 365.01 18.9467 366.36 19.0042C367.704 18.9585 369.018 19.4108 370.05 20.2742C371.091 21.202 371.861 22.3941 372.28 23.7242C372.814 25.3359 373.071 27.0266 373.04 28.7242C373.066 30.4052 372.809 32.0785 372.28 33.6742Z" fill="#6CABDD"/>
<path d="M396.12 8.00422C396.481 7.66273 396.913 7.40434 397.384 7.24714C397.856 7.08995 398.356 7.03776 398.85 7.09423C399.371 7.07371 399.893 7.12417 400.4 7.24423C400.562 7.31326 400.737 7.34458 400.913 7.33582C401.089 7.32706 401.26 7.27845 401.414 7.19367C401.568 7.10888 401.701 6.99015 401.803 6.84645C401.904 6.70275 401.972 6.53785 402 6.36423L403 2.23423C403.042 2.04989 403.046 1.85888 403.011 1.67305C402.976 1.48722 402.903 1.31053 402.798 1.15394C402.692 0.997351 402.555 0.864204 402.395 0.762761C402.235 0.661317 402.057 0.593741 401.87 0.564225L400.73 0.334225C399.499 0.110884 398.251 0.000425548 397 0.00422509C395.14 -0.0296045 393.297 0.360237 391.61 1.14423C390.049 1.89018 388.75 3.08891 387.88 4.58423C386.908 6.34404 386.435 8.3354 386.51 10.3442V12.6542H383.38C383.197 12.6542 383.016 12.6906 382.847 12.7612C382.679 12.8317 382.525 12.9352 382.397 13.0655C382.269 13.1957 382.167 13.3502 382.099 13.52C382.031 13.6897 381.997 13.8713 382 14.0542V17.9442C382 18.3102 382.145 18.6612 382.404 18.92C382.663 19.1788 383.014 19.3242 383.38 19.3242H386.51V44.6142H395.35V19.3242H400.35C400.716 19.3242 401.067 19.1788 401.326 18.92C401.585 18.6612 401.73 18.3102 401.73 17.9442V14.0542C401.73 13.6882 401.585 13.3372 401.326 13.0784C401.067 12.8196 400.716 12.6742 400.35 12.6742H395.35V10.5242C395.296 9.61906 395.569 8.72468 396.12 8.00422Z" fill="#6CABDD"/>
<path d="M444.25 28.9142C444.28 30.4265 443.911 31.9199 443.18 33.2442C442.482 34.5061 441.442 35.5458 440.18 36.2442C438.765 36.9541 437.203 37.3238 435.62 37.3238C434.037 37.3238 432.475 36.9541 431.06 36.2442C429.796 35.5493 428.755 34.5087 428.06 33.2442C427.337 31.9173 426.972 30.4251 427 28.9142V3.40422C427.003 3.21704 426.968 3.03123 426.896 2.85811C426.825 2.68499 426.719 2.52818 426.586 2.39722C426.452 2.26625 426.293 2.16387 426.118 2.09631C425.944 2.02875 425.757 1.99742 425.57 2.00422H419.32C418.954 2.00422 418.603 2.14962 418.344 2.40842C418.085 2.66722 417.94 3.01822 417.94 3.38422V29.6842C417.852 32.5212 418.6 35.3215 420.089 37.7375C421.579 40.1535 423.746 42.0787 426.32 43.2742C429.241 44.5607 432.398 45.2251 435.59 45.2251C438.782 45.2251 441.939 44.5607 444.86 43.2742C447.436 42.0796 449.606 40.1551 451.099 37.7394C452.592 35.3237 453.343 32.5229 453.26 29.6842V3.40422C453.263 3.22132 453.229 3.03972 453.161 2.86998C453.093 2.70023 452.991 2.54573 452.863 2.41546C452.735 2.28519 452.582 2.18175 452.413 2.11115C452.244 2.04055 452.063 2.0042 451.88 2.00422H445.63C445.264 2.00422 444.913 2.14962 444.654 2.40842C444.395 2.66722 444.25 3.01822 444.25 3.38422V28.9142Z" fill="#6CABDD"/>
<path d="M482.44 29.1442C480.443 27.5102 478.042 26.446 475.49 26.0642L469.71 24.9042C468.578 24.7322 467.503 24.2972 466.57 23.6342C466.281 23.4009 466.047 23.1053 465.888 22.7694C465.729 22.4335 465.647 22.066 465.65 21.6942C465.654 21.2178 465.789 20.7515 466.039 20.3461C466.289 19.9406 466.646 19.6115 467.07 19.3942C468.125 18.7933 469.326 18.4957 470.54 18.5342C471.45 18.5108 472.354 18.6848 473.19 19.0442C473.885 19.3516 474.5 19.8133 474.99 20.3942C475.225 20.6873 475.426 21.006 475.59 21.3442C475.698 21.6128 475.887 21.841 476.131 21.9969C476.375 22.1529 476.661 22.2288 476.95 22.2142L482.41 21.8742C482.613 21.8643 482.811 21.8093 482.991 21.7132C483.17 21.6171 483.326 21.4823 483.446 21.3185C483.567 21.1548 483.649 20.9663 483.688 20.7666C483.727 20.567 483.721 20.3612 483.67 20.1642C483.077 18.0031 481.756 16.1131 479.93 14.8142C477.61 13.1009 474.43 12.2476 470.39 12.2542C467.955 12.201 465.532 12.6116 463.25 13.4642C461.384 14.1392 459.748 15.3283 458.53 16.8942C457.394 18.424 456.803 20.2896 456.85 22.1942C456.81 23.2793 456.992 24.3611 457.384 25.3738C457.776 26.3864 458.37 27.3086 459.13 28.0842C461.088 29.8386 463.526 30.967 466.13 31.3242L471.66 32.4242C472.763 32.5892 473.816 32.9992 474.74 33.6242C475.052 33.856 475.304 34.1577 475.478 34.5051C475.652 34.8525 475.742 35.2358 475.74 35.6242C475.727 36.1155 475.584 36.5945 475.326 37.0126C475.068 37.4307 474.703 37.7728 474.27 38.0042C473.13 38.6525 471.83 38.9645 470.52 38.9042C469.152 38.9677 467.797 38.6193 466.63 37.9042C465.896 37.421 465.33 36.7223 465.01 35.9042C464.905 35.6293 464.716 35.3943 464.47 35.2328C464.225 35.0712 463.934 34.9912 463.64 35.0042L457.64 35.3142C457.437 35.3222 457.238 35.3749 457.058 35.4686C456.878 35.5622 456.721 35.6944 456.598 35.8558C456.474 36.0172 456.388 36.2039 456.345 36.4024C456.303 36.6009 456.304 36.8064 456.35 37.0042C456.996 39.2717 458.41 41.2441 460.35 42.5842C462.85 44.3576 466.217 45.2442 470.45 45.2442C472.963 45.2916 475.461 44.843 477.8 43.9242C479.763 43.1518 481.487 41.8756 482.8 40.2242C484.026 38.6526 484.676 36.7075 484.64 34.7142C484.692 33.6826 484.522 32.6518 484.143 31.6911C483.763 30.7304 483.183 29.862 482.44 29.1442Z" fill="#6CABDD"/>
</svg>
