<svg width="485" height="46" viewBox="0 0 485 46" fill="none" xmlns="http://www.w3.org/2000/svg">
<path d="M25 27.872C27.197 26.8892 29.0423 25.2602 30.29 23.202C31.5584 20.9864 32.1915 18.464 32.12 15.912C32.1807 13.346 31.5595 10.8097 30.32 8.56204C29.1038 6.46003 27.2856 4.7707 25.1 3.71204C22.5086 2.50094 19.6691 1.91523 16.81 2.00204H1.38C1.014 2.00204 0.662993 2.14743 0.404193 2.40623C0.145392 2.66503 0 3.01604 0 3.38204L0 43.212C0 43.3933 0.0356947 43.5727 0.105046 43.7401C0.174398 43.9076 0.276048 44.0597 0.404193 44.1878C0.532338 44.316 0.684468 44.4176 0.851897 44.487C1.01933 44.5563 1.19878 44.592 1.38 44.592H7.62C7.80122 44.592 7.98067 44.5563 8.1481 44.487C8.31553 44.4176 8.46766 44.316 8.59581 44.1878C8.72395 44.0597 8.8256 43.9076 8.89495 43.7401C8.96431 43.5727 9 43.3933 9 43.212V29.492H15.57L23.25 43.862C23.368 44.083 23.5438 44.2676 23.7588 44.3962C23.9737 44.5248 24.2195 44.5925 24.47 44.592H31.25C31.4836 44.5882 31.7123 44.5251 31.9148 44.4087C32.1174 44.2923 32.287 44.1264 32.4079 43.9266C32.5289 43.7267 32.5971 43.4994 32.6062 43.266C32.6153 43.0326 32.565 42.8007 32.46 42.592L24.54 28.002L25 27.872ZM9 9.36204H15.07C16.5439 9.3128 18.0118 9.57165 19.38 10.122C20.4748 10.5469 21.3967 11.3245 22 12.332C22.5939 13.4296 22.8871 14.6646 22.85 15.912C22.889 17.1405 22.5953 18.3567 22 19.432C21.4076 20.401 20.5109 21.1465 19.45 21.552C18.0824 22.0613 16.6286 22.299 15.17 22.252H9V9.36204Z" fill="#404E6B"/>
<path d="M52.05 44.592H55.51C55.6912 44.592 55.8707 44.5563 56.0381 44.487C56.2055 44.4176 56.3577 44.316 56.4858 44.1878C56.614 44.0597 56.7156 43.9076 56.785 43.7401C56.8543 43.5727 56.89 43.3933 56.89 43.212V17.642H62.39C62.5721 17.6433 62.7526 17.6086 62.9212 17.5399C63.0898 17.4711 63.2431 17.3697 63.3723 17.2414C63.5015 17.1131 63.604 16.9605 63.674 16.7925C63.744 16.6244 63.78 16.4441 63.78 16.262V14.002C63.78 13.82 63.744 13.6397 63.674 13.4716C63.604 13.3035 63.5015 13.1509 63.3723 13.0227C63.2431 12.8944 63.0898 12.793 62.9212 12.7242C62.7526 12.6554 62.5721 12.6207 62.39 12.622H56.89V9.78203C56.8174 8.61319 57.1729 7.45791 57.89 6.53203C58.3142 6.12114 58.8231 5.80799 59.381 5.61452C59.939 5.42104 60.5325 5.35193 61.12 5.41203C61.6818 5.39346 62.2435 5.45065 62.79 5.58203C62.9262 5.64738 63.0754 5.68103 63.2265 5.68045C63.3775 5.67987 63.5265 5.64508 63.6622 5.57868C63.7979 5.51228 63.9168 5.416 64.0099 5.29708C64.103 5.17815 64.168 5.03967 64.2 4.89203L65 2.17203C65.0511 1.9934 65.0655 1.80629 65.0425 1.62193C65.0195 1.43758 64.9595 1.25976 64.8662 1.09915C64.7728 0.938531 64.6479 0.798426 64.4991 0.687229C64.3503 0.576032 64.1805 0.496034 64 0.452029L63.36 0.302029C62.3074 0.0857672 61.2344 -0.0148299 60.16 0.00202918C58.5393 -0.00987641 56.9355 0.331366 55.46 1.00203C54.044 1.65126 52.8433 2.69226 52 4.00203C51.0794 5.50288 50.6236 7.2426 50.69 9.00203V12.712H47.1C46.7491 12.7113 46.411 12.8443 46.1547 13.0839C45.8983 13.3235 45.7429 13.6518 45.72 14.002V16.232C45.72 16.598 45.8654 16.949 46.1242 17.2078C46.383 17.4666 46.734 17.612 47.1 17.612H50.67V43.212C50.67 43.3933 50.7057 43.5727 50.775 43.7401C50.8444 43.9076 50.946 44.0597 51.0742 44.1878C51.2023 44.316 51.3545 44.4176 51.5219 44.487C51.6893 44.5563 51.8688 44.592 52.05 44.592V44.592Z" fill="#404E6B"/>
<path d="M70.53 43.182C72.9224 44.5323 75.6229 45.2419 78.37 45.2419C81.1171 45.2419 83.8177 44.5323 86.21 43.182C88.455 41.7946 90.2586 39.7967 91.41 37.422C92.6973 34.7204 93.331 31.7538 93.26 28.762C93.3309 25.7606 92.6973 22.7843 91.41 20.072C90.2679 17.6859 88.4626 15.6792 86.21 14.292C83.8177 12.9417 81.1171 12.2322 78.37 12.2322C75.6229 12.2322 72.9224 12.9417 70.53 14.292C68.2822 15.6848 66.4783 17.69 65.33 20.072C64.0473 22.7859 63.4139 25.7611 63.48 28.762C63.4138 31.7534 64.0473 34.7188 65.33 37.422C66.486 39.7937 68.2886 41.7904 70.53 43.182ZM70.69 23.122C71.2358 21.5091 72.2233 20.0817 73.54 19.002C74.9501 17.988 76.6431 17.4425 78.38 17.4425C80.1169 17.4425 81.8099 17.988 83.22 19.002C84.5264 20.0932 85.5087 21.5216 86.06 23.132C86.6928 24.9343 87.0108 26.832 87 28.742C87.0209 30.661 86.7096 32.5692 86.08 34.382C85.5308 35.9851 84.5477 37.4044 83.24 38.482C81.8247 39.4834 80.1337 40.0211 78.4 40.0211C76.6663 40.0211 74.9753 39.4834 73.56 38.482C72.2423 37.4115 71.2543 35.9902 70.71 34.382C70.0722 32.571 69.7575 30.662 69.78 28.742C69.7534 26.83 70.0614 24.928 70.69 23.122V23.122Z" fill="#404E6B"/>
<path d="M102.67 25.082C102.643 23.7951 102.976 22.5262 103.632 21.4184C104.287 20.3105 105.239 19.4079 106.38 18.812C107.59 18.1839 108.937 17.8677 110.3 17.892C110.939 17.8852 111.578 17.9286 112.21 18.022C112.365 18.0766 112.532 18.092 112.694 18.0669C112.857 18.0417 113.011 17.9768 113.143 17.8779C113.274 17.779 113.379 17.6491 113.449 17.4998C113.518 17.3505 113.549 17.1864 113.54 17.022V13.452C113.543 13.2876 113.512 13.1243 113.45 12.9719C113.388 12.8196 113.296 12.6814 113.179 12.5655C113.063 12.4497 112.924 12.3587 112.771 12.2979C112.618 12.2372 112.454 12.208 112.29 12.212C111.75 12.212 111.29 12.212 110.9 12.212C109.122 12.1895 107.379 12.7055 105.9 13.692C104.441 14.6615 103.352 16.0958 102.81 17.762H102.48V14.002C102.48 13.636 102.335 13.285 102.076 13.0262C101.817 12.7674 101.466 12.622 101.1 12.622H97.83C97.464 12.622 97.113 12.7674 96.8542 13.0262C96.5954 13.285 96.45 13.636 96.45 14.002V43.212C96.45 43.3932 96.4857 43.5727 96.5551 43.7401C96.6244 43.9076 96.7261 44.0597 96.8542 44.1878C96.9824 44.316 97.1345 44.4176 97.3019 44.487C97.4693 44.5563 97.6488 44.592 97.83 44.592H101.28C101.462 44.5933 101.643 44.5586 101.811 44.4899C101.98 44.4211 102.133 44.3197 102.262 44.1914C102.391 44.0631 102.494 43.9105 102.564 43.7424C102.634 43.5744 102.67 43.3941 102.67 43.212V25.082Z" fill="#404E6B"/>
<path d="M130.75 36.502C130.687 38.2013 131.144 39.8792 132.06 41.312C132.911 42.5599 134.101 43.5383 135.49 44.132C136.936 44.7511 138.498 45.0513 140.07 45.012C140.909 45.008 141.746 44.9277 142.57 44.772L142.8 44.722C143.147 44.6321 143.446 44.4107 143.632 44.1046C143.819 43.7985 143.879 43.4317 143.8 43.082C143.8 43.082 143.18 40.352 143.12 39.992C143.101 39.8827 143.058 39.7787 142.996 39.6868C142.934 39.5949 142.853 39.5172 142.758 39.4587C142.664 39.4002 142.558 39.3623 142.448 39.3473C142.338 39.3324 142.227 39.3408 142.12 39.372C141.689 39.4589 141.249 39.4958 140.81 39.482C140.168 39.4892 139.531 39.3773 138.93 39.152C138.331 38.9242 137.832 38.4921 137.52 37.932C137.108 37.0872 136.922 36.1501 136.98 35.212V17.642H142.15C142.516 17.642 142.867 17.4966 143.126 17.2378C143.385 16.979 143.53 16.628 143.53 16.262V14.002C143.53 13.636 143.385 13.285 143.126 13.0262C142.867 12.7674 142.516 12.622 142.15 12.622H137V6.37202C136.999 6.18909 136.961 6.00823 136.889 5.83998C136.817 5.67173 136.713 5.51943 136.582 5.39195C136.45 5.26447 136.295 5.16434 136.125 5.0974C135.955 5.03046 135.773 4.99804 135.59 5.00202H132.13C131.764 5.00202 131.413 5.14741 131.154 5.40621C130.895 5.66501 130.75 6.01602 130.75 6.38202V12.662H127.45C127.091 12.6619 126.746 12.8018 126.488 13.052C126.23 13.3022 126.08 13.643 126.07 14.002V16.232C126.07 16.598 126.215 16.949 126.474 17.2078C126.733 17.4666 127.084 17.612 127.45 17.612H130.75V36.502Z" fill="#404E6B"/>
<path d="M152.35 25.622C152.316 24.1178 152.66 22.6291 153.35 21.292C153.972 20.1312 154.921 19.1786 156.08 18.552C157.295 17.9184 158.65 17.5987 160.02 17.622C160.943 17.5711 161.867 17.7178 162.729 18.0523C163.592 18.3869 164.373 18.9016 165.02 19.562C166.304 21.0738 166.956 23.0221 166.84 25.002V43.212C166.84 43.3933 166.876 43.5727 166.945 43.7401C167.014 43.9076 167.116 44.0597 167.244 44.1878C167.372 44.316 167.524 44.4176 167.692 44.487C167.859 44.5563 168.039 44.592 168.22 44.592H171.68C171.861 44.592 172.041 44.5563 172.208 44.487C172.376 44.4176 172.528 44.316 172.656 44.1878C172.784 44.0597 172.886 43.9076 172.955 43.7401C173.024 43.5727 173.06 43.3933 173.06 43.212V24.272C173.139 21.9758 172.673 19.6935 171.7 17.612C170.866 15.9162 169.528 14.5193 167.87 13.612C166.099 12.6806 164.12 12.216 162.12 12.262C160.015 12.1736 157.929 12.7019 156.12 13.782C154.595 14.7777 153.401 16.2051 152.69 17.882H152.29V3.38204C152.29 3.19826 152.253 3.01632 152.182 2.84691C152.111 2.67749 152.007 2.52401 151.875 2.39547C151.744 2.26692 151.588 2.1659 151.417 2.09834C151.246 2.03078 151.064 1.99804 150.88 2.00204H147.51C147.144 2.00204 146.793 2.14743 146.534 2.40623C146.275 2.66503 146.13 3.01604 146.13 3.38204V43.212C146.13 43.3933 146.166 43.5727 146.235 43.7401C146.304 43.9076 146.406 44.0597 146.534 44.1878C146.662 44.316 146.814 44.4176 146.982 44.487C147.149 44.5563 147.329 44.592 147.51 44.592H151C151.182 44.5934 151.363 44.5586 151.531 44.4899C151.7 44.4211 151.853 44.3197 151.982 44.1914C152.111 44.0631 152.214 43.9105 152.284 43.7425C152.354 43.5744 152.39 43.3941 152.39 43.212L152.35 25.622Z" fill="#404E6B"/>
<path d="M203 36.322L199.77 35.732C199.481 35.6826 199.183 35.7267 198.92 35.858C198.658 35.9893 198.444 36.2009 198.31 36.462C197.99 37.0538 197.582 37.5934 197.1 38.062C196.38 38.7479 195.521 39.2698 194.58 39.592C193.543 39.943 192.454 40.1155 191.36 40.102C189.693 40.1425 188.046 39.735 186.59 38.922C185.217 38.1221 184.114 36.9315 183.42 35.502C182.687 33.9373 182.308 32.23 182.31 30.502H203.62C203.802 30.502 203.982 30.466 204.15 30.396C204.319 30.3261 204.471 30.2235 204.599 30.0943C204.728 29.9651 204.829 29.8118 204.898 29.6432C204.967 29.4746 205.001 29.2941 205 29.112V28.292C205.061 25.7757 204.668 23.2689 203.84 20.892C203.168 19.0056 202.078 17.296 200.65 15.892C199.348 14.645 197.798 13.6873 196.1 13.082C194.416 12.4916 192.644 12.1907 190.86 12.192C188.164 12.1049 185.502 12.8107 183.204 14.2221C180.905 15.6335 179.072 17.6884 177.93 20.132C176.656 22.8378 176.026 25.802 176.09 28.792C176.018 31.7828 176.649 34.7487 177.93 37.452C179.083 39.828 180.904 41.8159 183.17 43.172C185.648 44.5661 188.458 45.2576 191.3 45.172C193.422 45.2067 195.532 44.8438 197.52 44.102C199.247 43.4586 200.806 42.4331 202.08 41.102C202.91 40.2402 203.587 39.2424 204.08 38.152C204.153 37.9613 204.181 37.7566 204.164 37.5533C204.147 37.3499 204.084 37.1531 203.98 36.9773C203.876 36.8015 203.734 36.6514 203.565 36.5379C203.395 36.4245 203.202 36.3507 203 36.322V36.322ZM183.34 22.002C184.031 20.6509 185.065 19.5057 186.34 18.682C187.696 17.8049 189.286 17.3587 190.9 17.402C192.379 17.3641 193.839 17.7455 195.11 18.502C196.3 19.2276 197.268 20.2651 197.91 21.502C198.592 22.8529 198.935 24.3492 198.91 25.862H182.32C182.388 24.5184 182.735 23.2036 183.34 22.002V22.002Z" fill="#404E6B"/>
<path d="M245.2 27.892C247.397 26.9092 249.242 25.2802 250.49 23.222C251.758 21.0064 252.392 18.484 252.32 15.932C252.381 13.366 251.76 10.8297 250.52 8.58204C249.304 6.48002 247.486 4.7907 245.3 3.73204C242.722 2.52054 239.897 1.92812 237.05 2.00204H221.63C221.264 2.00204 220.913 2.14743 220.654 2.40623C220.395 2.66503 220.25 3.01604 220.25 3.38204V43.232C220.25 43.598 220.395 43.949 220.654 44.2078C220.913 44.4666 221.264 44.612 221.63 44.612H227.87C228.236 44.612 228.587 44.4666 228.846 44.2078C229.105 43.949 229.25 43.598 229.25 43.232V29.512H235.83L243.51 43.882C243.626 44.1022 243.8 44.2865 244.014 44.4151C244.227 44.5437 244.471 44.6118 244.72 44.612H251.51C251.744 44.6082 251.972 44.5451 252.175 44.4287C252.377 44.3123 252.547 44.1464 252.668 43.9466C252.789 43.7467 252.857 43.5194 252.866 43.286C252.875 43.0526 252.825 42.8207 252.72 42.612L244.79 28.092L245.2 27.892ZM229.25 9.38204H235.33C236.804 9.3328 238.272 9.59165 239.64 10.142C240.713 10.5781 241.612 11.3546 242.2 12.352C242.79 13.4506 243.08 14.6856 243.04 15.932C243.082 17.1596 242.792 18.3758 242.2 19.452C241.608 20.421 240.711 21.1665 239.65 21.572C238.282 22.0813 236.829 22.319 235.37 22.272H229.25V9.38204Z" fill="#404E6B"/>
<path d="M280.63 16.282C279.267 14.9507 277.633 13.9276 275.84 13.282C273.951 12.6036 271.957 12.2651 269.95 12.282C267.081 12.2103 264.247 12.9299 261.76 14.362C259.447 15.7413 257.576 17.7539 256.37 20.162C255.042 22.8521 254.384 25.8229 254.45 28.822C254.374 31.8477 255.033 34.8468 256.37 37.562C257.582 39.9597 259.479 41.9434 261.82 43.262C264.424 44.6566 267.347 45.3461 270.3 45.262C272.69 45.3075 275.066 44.8933 277.3 44.042C279.216 43.3221 280.93 42.1526 282.3 40.632C283.164 39.6421 283.842 38.5037 284.3 37.272C284.381 37.0692 284.412 36.8501 284.393 36.6327C284.373 36.4153 284.302 36.2055 284.186 36.0205C284.071 35.8355 283.913 35.6803 283.726 35.5677C283.539 35.455 283.328 35.388 283.11 35.372L277.52 35.002C277.261 34.9843 277.002 35.0408 276.773 35.1647C276.545 35.2887 276.357 35.475 276.23 35.702C275.967 36.1792 275.629 36.6113 275.23 36.982C274.629 37.5461 273.912 37.9727 273.13 38.232C272.258 38.5118 271.346 38.6502 270.43 38.642C269.087 38.6778 267.759 38.3569 266.58 37.712C265.501 37.0743 264.634 36.1314 264.09 35.002C263.474 33.7288 263.172 32.3261 263.21 30.912V30.912H283.58C283.765 30.9174 283.948 30.8856 284.12 30.8187C284.292 30.7517 284.449 30.6509 284.582 30.5223C284.714 30.3936 284.819 30.2396 284.891 30.0695C284.963 29.8995 285 29.7167 285 29.532V28.472C285.048 26.0497 284.662 23.6383 283.86 21.352C283.166 19.4467 282.064 17.7162 280.63 16.282V16.282ZM263.23 25.422C263.268 24.3151 263.566 23.2327 264.1 22.262C264.679 21.2396 265.517 20.3877 266.53 19.792C267.608 19.1598 268.84 18.838 270.09 18.862C271.279 18.8338 272.454 19.1275 273.49 19.712C274.456 20.2577 275.253 21.0609 275.79 22.032C276.361 23.069 276.647 24.2386 276.62 25.422H263.23Z" fill="#404E6B"/>
<path d="M306.17 26.062L300.38 24.902C299.249 24.7278 298.174 24.2931 297.24 23.632C296.952 23.3982 296.72 23.1023 296.563 22.7663C296.405 22.4303 296.326 22.0631 296.33 21.692C296.334 21.2168 296.468 20.7517 296.716 20.3466C296.965 19.9414 297.318 19.6115 297.74 19.392C298.799 18.7912 300.003 18.4937 301.22 18.532C302.13 18.5096 303.034 18.6835 303.87 19.042C304.565 19.3494 305.18 19.8111 305.67 20.392C305.905 20.6831 306.103 21.0022 306.26 21.342C306.371 21.6105 306.562 21.8382 306.807 21.9939C307.053 22.1496 307.34 22.2258 307.63 22.212L313.09 21.872C313.293 21.8621 313.492 21.8071 313.671 21.711C313.85 21.6149 314.006 21.4801 314.126 21.3163C314.247 21.1526 314.33 20.9641 314.368 20.7644C314.407 20.5647 314.401 20.359 314.35 20.162C313.754 18.0026 312.433 16.1138 310.61 14.812C308.28 13.102 305.11 12.252 301.07 12.252C298.635 12.1988 296.212 12.6094 293.93 13.462C292.063 14.1345 290.426 15.3241 289.21 16.892C288.074 18.4218 287.483 20.2874 287.53 22.192C287.49 23.2771 287.672 24.3589 288.064 25.3715C288.456 26.3842 289.05 27.3064 289.81 28.082C291.768 29.8364 294.206 30.9648 296.81 31.322L302.34 32.422C303.443 32.589 304.495 32.9988 305.42 33.622C305.73 33.8554 305.982 34.1575 306.155 34.5045C306.329 34.8515 306.419 35.234 306.42 35.622C306.412 36.1083 306.277 36.584 306.028 37.0016C305.779 37.4192 305.424 37.7642 305 38.002C303.86 38.6503 302.56 38.9623 301.25 38.902C299.882 38.9673 298.527 38.6189 297.36 37.902C296.621 37.4219 296.051 36.7225 295.73 35.902C295.627 35.6279 295.44 35.3932 295.196 35.2316C294.952 35.07 294.663 34.9896 294.37 35.002L288.37 35.312C288.16 35.3062 287.951 35.3489 287.76 35.4367C287.569 35.5246 287.4 35.6553 287.268 35.8188C287.135 35.9822 287.042 36.1739 286.996 36.3791C286.949 36.5843 286.951 36.7975 287 37.002C287.651 39.2806 289.085 41.2565 291.05 42.582C293.55 44.3554 296.913 45.242 301.14 45.242C303.656 45.2902 306.157 44.8416 308.5 43.922C310.463 43.1496 312.188 41.8734 313.5 40.222C314.727 38.6504 315.376 36.7053 315.34 34.712C315.382 33.6735 315.199 32.6382 314.803 31.6769C314.408 30.7155 313.81 29.8509 313.05 29.142C311.074 27.5177 308.698 26.4539 306.17 26.062V26.062Z" fill="#404E6B"/>
<path d="M333.71 37.802C333.298 37.8816 332.88 37.9217 332.46 37.922C331.924 37.9301 331.391 37.835 330.89 37.642C330.438 37.4665 330.064 37.1324 329.84 36.702C329.56 36.1094 329.429 35.4569 329.46 34.802V19.322H334.09C334.272 19.3234 334.453 19.2886 334.621 19.2199C334.79 19.1511 334.943 19.0497 335.072 18.9214C335.201 18.7931 335.304 18.6405 335.374 18.4725C335.444 18.3044 335.48 18.1241 335.48 17.942V14.052C335.48 13.87 335.444 13.6897 335.374 13.5216C335.304 13.3535 335.201 13.201 335.072 13.0727C334.943 12.9444 334.79 12.843 334.621 12.7742C334.453 12.7054 334.272 12.6707 334.09 12.672H329.46V6.39204C329.461 6.20997 329.427 6.02945 329.358 5.86086C329.289 5.69228 329.188 5.53896 329.059 5.40976C328.931 5.28055 328.778 5.17801 328.61 5.10803C328.442 5.03805 328.262 5.00203 328.08 5.00204H322C321.818 5.00072 321.637 5.03544 321.469 5.1042C321.3 5.17296 321.147 5.2744 321.018 5.40268C320.889 5.53095 320.786 5.68353 320.716 5.85161C320.646 6.0197 320.61 6.19997 320.61 6.38204V12.662H317.61C317.244 12.662 316.893 12.8074 316.634 13.0662C316.375 13.325 316.23 13.676 316.23 14.042V17.932C316.23 18.298 316.375 18.649 316.634 18.9078C316.893 19.1666 317.244 19.312 317.61 19.312H320.61V36.002C320.531 37.8259 320.987 39.6331 321.92 41.202C322.825 42.5662 324.132 43.6148 325.66 44.202C327.445 44.8794 329.354 45.1691 331.26 45.052C332.248 45.028 333.232 44.9142 334.2 44.712L334.79 44.572C335.135 44.4821 335.432 44.2622 335.618 43.9583C335.805 43.6545 335.866 43.2903 335.79 42.942C335.79 42.942 334.92 38.942 334.79 38.472C334.66 38.002 334.48 37.642 333.71 37.802Z" fill="#404E6B"/>
<path d="M374.69 14.322C372.108 12.9661 369.236 12.2576 366.32 12.2576C363.404 12.2576 360.532 12.9661 357.95 14.322C355.617 15.6835 353.728 17.6909 352.51 20.102C351.189 22.7942 350.534 25.7641 350.6 28.762C350.535 31.747 351.19 34.7038 352.51 37.382C353.74 39.8037 355.647 41.8154 358 43.172C360.582 44.528 363.454 45.2364 366.37 45.2364C369.286 45.2364 372.158 44.528 374.74 43.172C377.074 41.8078 378.964 39.7968 380.18 37.382C381.508 34.7062 382.166 31.7483 382.1 28.762C382.167 25.7628 381.509 22.7917 380.18 20.102C378.949 17.684 377.041 15.676 374.69 14.322V14.322ZM372.28 33.672C371.861 35.0021 371.091 36.1942 370.05 37.122C369.011 37.9709 367.701 38.4149 366.36 38.372C365.007 38.413 363.685 37.9697 362.63 37.122C361.573 36.2002 360.788 35.0073 360.36 33.672C359.83 32.0594 359.573 30.3694 359.6 28.672C359.573 26.9747 359.83 25.2848 360.36 23.672C360.788 22.3368 361.573 21.1439 362.63 20.222C363.685 19.3779 365.01 18.9445 366.36 19.002C367.704 18.9563 369.018 19.4086 370.05 20.272C371.091 21.1998 371.861 22.3919 372.28 23.722C372.814 25.3337 373.071 27.0244 373.04 28.722C373.066 30.403 372.809 32.0763 372.28 33.672V33.672Z" fill="#404E6B"/>
<path d="M396.12 8.00203C396.481 7.66053 396.913 7.40214 397.384 7.24495C397.856 7.08775 398.356 7.03556 398.85 7.09203C399.371 7.07151 399.893 7.12197 400.4 7.24203C400.562 7.31106 400.737 7.34238 400.913 7.33362C401.089 7.32486 401.26 7.27625 401.414 7.19147C401.568 7.10669 401.701 6.98795 401.803 6.84425C401.904 6.70056 401.972 6.53565 402 6.36203L403 2.23203C403.042 2.04769 403.046 1.85669 403.011 1.67086C402.976 1.48502 402.903 1.30833 402.798 1.15174C402.692 0.995153 402.555 0.862007 402.395 0.760563C402.235 0.65912 402.057 0.591544 401.87 0.562028L400.73 0.332028C399.499 0.108687 398.251 -0.00177172 397 0.00202782C395.14 -0.0318018 393.297 0.35804 391.61 1.14203C390.049 1.88798 388.75 3.08671 387.88 4.58203C386.908 6.34185 386.435 8.3332 386.51 10.342V12.652H383.38C383.197 12.652 383.016 12.6884 382.847 12.759C382.678 12.8296 382.525 12.933 382.397 13.0633C382.269 13.1935 382.167 13.348 382.099 13.5178C382.031 13.6875 381.997 13.8691 382 14.052V17.942C382 18.308 382.145 18.659 382.404 18.9178C382.663 19.1766 383.014 19.322 383.38 19.322H386.51V44.612H395.35V19.322H400.35C400.716 19.322 401.067 19.1766 401.326 18.9178C401.585 18.659 401.73 18.308 401.73 17.942V14.052C401.73 13.686 401.585 13.335 401.326 13.0762C401.067 12.8174 400.716 12.672 400.35 12.672H395.35V10.522C395.296 9.61686 395.569 8.72248 396.12 8.00203V8.00203Z" fill="#404E6B"/>
<path d="M444.25 28.912C444.28 30.4243 443.911 31.9178 443.18 33.242C442.482 34.5039 441.442 35.5436 440.18 36.242C438.765 36.952 437.203 37.3216 435.62 37.3216C434.037 37.3216 432.475 36.952 431.06 36.242C429.795 35.5471 428.755 34.5065 428.06 33.242C427.337 31.9151 426.972 30.4229 427 28.912V3.40204C427.003 3.21486 426.968 3.02905 426.896 2.85593C426.825 2.68281 426.719 2.526 426.586 2.39503C426.452 2.26407 426.293 2.16169 426.118 2.09413C425.944 2.02657 425.757 1.99524 425.57 2.00204H419.32C418.954 2.00204 418.603 2.14743 418.344 2.40623C418.085 2.66503 417.94 3.01604 417.94 3.38204V29.682C417.852 32.519 418.6 35.3194 420.089 37.7353C421.579 40.1513 423.746 42.0765 426.32 43.272C429.241 44.5585 432.398 45.2229 435.59 45.2229C438.782 45.2229 441.939 44.5585 444.86 43.272C447.436 42.0774 449.606 40.153 451.099 37.7372C452.592 35.3215 453.343 32.5207 453.26 29.682V3.40204C453.263 3.21914 453.229 3.03754 453.161 2.86779C453.093 2.69805 452.991 2.54355 452.863 2.41328C452.735 2.28301 452.581 2.17957 452.413 2.10897C452.244 2.03837 452.063 2.00202 451.88 2.00204H445.63C445.264 2.00204 444.913 2.14743 444.654 2.40623C444.395 2.66503 444.25 3.01604 444.25 3.38204V28.912Z" fill="#404E6B"/>
<path d="M482.44 29.142C480.443 27.508 478.042 26.4438 475.49 26.062L469.71 24.902C468.578 24.73 467.503 24.295 466.57 23.632C466.281 23.3987 466.047 23.1031 465.888 22.7672C465.729 22.4313 465.647 22.0638 465.65 21.692C465.654 21.2156 465.789 20.7493 466.039 20.3439C466.289 19.9384 466.646 19.6093 467.07 19.392C468.125 18.7911 469.326 18.4935 470.54 18.532C471.45 18.5086 472.354 18.6826 473.19 19.042C473.885 19.3494 474.5 19.8111 474.99 20.392C475.225 20.6851 475.426 21.0038 475.59 21.342C475.698 21.6106 475.887 21.8387 476.131 21.9947C476.375 22.1507 476.661 22.2266 476.95 22.212L482.41 21.872C482.613 21.8621 482.812 21.8071 482.991 21.711C483.17 21.6149 483.326 21.4801 483.446 21.3163C483.567 21.1526 483.65 20.9641 483.688 20.7644C483.727 20.5647 483.721 20.359 483.67 20.162C483.077 18.0009 481.756 16.1109 479.93 14.812C477.61 13.0987 474.43 12.2454 470.39 12.252C467.955 12.1988 465.532 12.6094 463.25 13.462C461.384 14.137 459.748 15.3261 458.53 16.892C457.394 18.4218 456.803 20.2874 456.85 22.192C456.81 23.2771 456.992 24.3589 457.384 25.3715C457.776 26.3842 458.37 27.3064 459.13 28.082C461.088 29.8364 463.526 30.9648 466.13 31.322L471.66 32.422C472.763 32.587 473.816 32.997 474.74 33.622C475.052 33.8538 475.305 34.1555 475.478 34.5029C475.652 34.8503 475.742 35.2336 475.74 35.622C475.727 36.1132 475.584 36.5923 475.326 37.0104C475.068 37.4285 474.703 37.7706 474.27 38.002C473.13 38.6503 471.83 38.9623 470.52 38.902C469.152 38.9655 467.797 38.6171 466.63 37.902C465.896 37.4188 465.33 36.7201 465.01 35.902C464.905 35.6271 464.716 35.3921 464.47 35.2306C464.225 35.069 463.934 34.989 463.64 35.002L457.64 35.312C457.437 35.32 457.238 35.3727 457.058 35.4664C456.878 35.56 456.721 35.6922 456.598 35.8536C456.474 36.015 456.388 36.2017 456.345 36.4002C456.303 36.5987 456.304 36.8042 456.35 37.002C456.996 39.2695 458.41 41.2419 460.35 42.582C462.85 44.3554 466.217 45.242 470.45 45.242C472.963 45.2894 475.461 44.8408 477.8 43.922C479.763 43.1496 481.487 41.8734 482.8 40.222C484.027 38.6504 484.676 36.7053 484.64 34.712C484.692 33.6804 484.522 32.6496 484.143 31.6889C483.763 30.7282 483.183 29.8598 482.44 29.142V29.142Z" fill="#404E6B"/>
</svg>
